<svg width="154" height="40" viewBox="0 0 154 40" fill="none" xmlns="http://www.w3.org/2000/svg">
<g clip-path="url(#clip0_15_7353)">
<mask id="mask0_15_7353" style="mask-type:luminance" maskUnits="userSpaceOnUse" x="0" y="0" width="154" height="40">
<path d="M153.171 0H0V40H153.171V0Z" fill="white"/>
</mask>
<g mask="url(#mask0_15_7353)">
<path fill-rule="evenodd" clip-rule="evenodd" d="M0 2.30769C0 1.03319 1.02866 0 2.29756 0H36.761C38.0829 0 39.0585 1.04015 39.0585 2.30769V24.6154L36.378 21.5385L29.1024 13.0769L19.9122 34.2308L6.89268 19.2308L2.68049 28.4615L0 34.3725V2.30769ZM36.378 2.72485H2.68049V17.6923L6.12683 10.3846L18.3805 25L28.3366 4.23077L36.378 14.2308V2.72485Z" fill="url(#paint0_linear_15_7353)"/>
<path d="M36.3778 37.3077H2.68019V33.4615L0.294922 38.728C0.709724 39.4492 1.5035 40 2.29726 40H36.7607C38.0296 40 39.0582 38.9668 39.0582 37.6923V28.0769L36.3778 25V37.3077Z" fill="url(#paint1_linear_15_7353)"/>
<path d="M55.5277 15.8384H59.2267V19.0692H55.6349V29.9999H51.4533V19.0692H49.2285V15.8384H51.4533V15.1922C51.4533 13.5409 51.9403 12.2307 52.9142 11.2615C53.8881 10.2922 55.2596 9.80762 57.0287 9.80762C57.6542 9.80762 58.2484 9.87492 58.8113 10.0095C59.3742 10.1442 59.8433 10.3371 60.2185 10.5884L59.1195 13.6307C58.637 13.2897 58.0741 13.1192 57.4308 13.1192C56.162 13.1192 55.5277 13.8192 55.5277 15.2192V15.8384Z" fill="white"/>
<path d="M70.4841 30L67.3212 25.5577L64.051 30H59.4941L65.0427 22.7038L59.6818 15.5154H64.3726L67.4284 19.7423L70.5646 15.5154H75.0142L69.6532 22.5962L75.2286 30H70.4841Z" fill="white"/>
<path d="M85.2544 15.7309C86.577 15.7309 87.774 16.0316 88.8462 16.6328C89.9184 17.2341 90.7585 18.0822 91.3659 19.177C91.9732 20.272 92.2772 21.5193 92.2772 22.9193C92.2772 24.3193 91.9732 25.5668 91.3659 26.6617C90.7585 27.7566 89.9184 28.6091 88.8462 29.2193C87.774 29.8297 86.577 30.1347 85.2544 30.1347C84.0749 30.1347 83.0158 29.8835 82.0776 29.3809C81.1394 28.8783 80.3851 28.1514 79.813 27.2001V30.0001H77.9902V10.0232H79.8934V18.5309C80.4831 17.6155 81.2382 16.92 82.158 16.4443C83.0786 15.9687 84.1109 15.7309 85.2544 15.7309ZM85.1203 28.4386C86.1029 28.4386 86.9967 28.2097 87.8008 27.752C88.605 27.2943 89.2345 26.6437 89.6902 25.8001C90.1459 24.9566 90.3741 23.9963 90.3741 22.9193C90.3741 21.8424 90.1459 20.8822 89.6902 20.0386C89.2345 19.195 88.605 18.5443 87.8008 18.0867C86.9967 17.629 86.1029 17.4001 85.1203 17.4001C84.1194 17.4001 83.2218 17.629 82.4261 18.0867C81.6311 18.5443 81.0054 19.195 80.5497 20.0386C80.094 20.8822 79.8666 21.8424 79.8666 22.9193C79.8666 23.9963 80.094 24.9566 80.5497 25.8001C81.0054 26.6437 81.6311 27.2943 82.4261 27.752C83.2218 28.2097 84.1194 28.4386 85.1203 28.4386Z" fill="white"/>
<path d="M101.927 30.1345C100.569 30.1345 99.3444 29.8249 98.2546 29.2057C97.1648 28.5865 96.307 27.7294 95.6813 26.6346C95.0556 25.5396 94.7432 24.3012 94.7432 22.9192C94.7432 21.5371 95.0556 20.2986 95.6813 19.2038C96.307 18.1089 97.1648 17.2563 98.2546 16.6461C99.3444 16.0358 100.569 15.7307 101.927 15.7307C103.285 15.7307 104.509 16.0358 105.599 16.6461C106.689 17.2563 107.542 18.1089 108.159 19.2038C108.775 20.2986 109.084 21.5371 109.084 22.9192C109.084 24.3012 108.775 25.5396 108.159 26.6346C107.542 27.7294 106.689 28.5865 105.599 29.2057C104.509 29.8249 103.285 30.1345 101.927 30.1345ZM101.927 28.4384C102.928 28.4384 103.825 28.2096 104.62 27.7519C105.416 27.2942 106.037 26.6435 106.484 25.7999C106.93 24.9563 107.154 23.9961 107.154 22.9192C107.154 21.8423 106.93 20.8819 106.484 20.0384C106.037 19.1948 105.416 18.5442 104.62 18.0865C103.825 17.6288 102.928 17.3999 101.927 17.3999C100.926 17.3999 100.028 17.6288 99.2326 18.0865C98.4376 18.5442 97.8119 19.1948 97.3563 20.0384C96.9006 20.8819 96.6731 21.8423 96.6731 22.9192C96.6731 23.9961 96.9006 24.9563 97.3563 25.7999C97.8119 26.6435 98.4376 27.2942 99.2326 27.7519C100.028 28.2096 100.926 28.4384 101.927 28.4384Z" fill="white"/>
<path d="M121.95 30.0002L117.474 24.0771L112.971 30.0002H110.826L116.402 22.7309L111.094 15.8386H113.239L117.474 21.3848L121.709 15.8386H123.8L118.492 22.7309L124.121 30.0002H121.95Z" fill="white"/>
<path d="M127.472 30.1348C127.08 30.1348 126.744 29.9912 126.467 29.704C126.19 29.4169 126.052 29.0669 126.052 28.654C126.052 28.2412 126.19 27.8957 126.467 27.6175C126.744 27.3393 127.08 27.2002 127.472 27.2002C127.865 27.2002 128.205 27.3393 128.491 27.6175C128.777 27.8957 128.92 28.2412 128.92 28.654C128.92 29.0669 128.777 29.4169 128.491 29.704C128.205 29.9912 127.865 30.1348 127.472 30.1348Z" fill="white"/>
<path d="M132.967 15.8386H134.87V30.0001H132.967V15.8386ZM133.932 12.7424C133.538 12.7424 133.208 12.6078 132.94 12.3386C132.672 12.0693 132.538 11.7463 132.538 11.3693C132.538 11.0104 132.672 10.6963 132.94 10.427C133.208 10.1578 133.538 10.0232 133.932 10.0232C134.325 10.0232 134.656 10.1533 134.924 10.4136C135.192 10.6739 135.326 10.9835 135.326 11.3424C135.326 11.7373 135.192 12.0693 134.924 12.3386C134.656 12.6078 134.325 12.7424 133.932 12.7424Z" fill="white"/>
<path d="M145.942 30.1345C144.583 30.1345 143.359 29.8249 142.269 29.2057C141.179 28.5865 140.321 27.7294 139.696 26.6346C139.07 25.5396 138.758 24.3012 138.758 22.9192C138.758 21.5371 139.07 20.2986 139.696 19.2038C140.321 18.1089 141.179 17.2563 142.269 16.6461C143.359 16.0358 144.583 15.7307 145.942 15.7307C147.299 15.7307 148.523 16.0358 149.614 16.6461C150.704 17.2563 151.557 18.1089 152.173 19.2038C152.79 20.2986 153.098 21.5371 153.098 22.9192C153.098 24.3012 152.79 25.5396 152.173 26.6346C151.557 27.7294 150.704 28.5865 149.614 29.2057C148.523 29.8249 147.299 30.1345 145.942 30.1345ZM145.942 28.4384C146.942 28.4384 147.84 28.2096 148.635 27.7519C149.431 27.2942 150.051 26.6435 150.498 25.7999C150.945 24.9563 151.168 23.9961 151.168 22.9192C151.168 21.8423 150.945 20.8819 150.498 20.0384C150.051 19.1948 149.431 18.5442 148.635 18.0865C147.84 17.6288 146.942 17.3999 145.942 17.3999C144.941 17.3999 144.043 17.6288 143.247 18.0865C142.452 18.5442 141.827 19.1948 141.371 20.0384C140.915 20.8819 140.688 21.8423 140.688 22.9192C140.688 23.9961 140.915 24.9563 141.371 25.7999C141.827 26.6435 142.452 27.2942 143.247 27.7519C144.043 28.2096 144.941 28.4384 145.942 28.4384Z" fill="white"/>
</g>
</g>
<defs>
<linearGradient id="paint0_linear_15_7353" x1="5.36098" y1="4.28834" x2="30.6848" y2="37.0321" gradientUnits="userSpaceOnUse">
<stop stop-color="#2152CB"/>
<stop offset="0.493933" stop-color="#5681E9"/>
<stop offset="1" stop-color="#6681FF"/>
</linearGradient>
<linearGradient id="paint1_linear_15_7353" x1="5.61538" y1="26.8714" x2="12.5764" y2="47.3403" gradientUnits="userSpaceOnUse">
<stop stop-color="#2152CB"/>
<stop offset="0.493933" stop-color="#5681E9"/>
<stop offset="1" stop-color="#6681FF"/>
</linearGradient>
<clipPath id="clip0_15_7353">
<rect width="153.171" height="40" fill="white"/>
</clipPath>
</defs>
</svg>
