<svg width="12" height="12" viewBox="0 0 12 12" fill="none" xmlns="http://www.w3.org/2000/svg">
<g clip-path="url(#clip0_15_7390)">
<path d="M0.000306129 8.62313C0.105376 8.89863 0.331706 9.0764 0.529935 9.27585C0.859809 9.60847 1.23489 9.60816 1.56598 9.27737C3.01559 7.82838 4.46551 6.37938 5.91237 4.92733C5.9872 4.85219 6.02019 4.86013 6.09013 4.92977C7.5373 6.38121 8.98721 7.83021 10.4368 9.27921C10.6934 9.53578 11.0004 9.60083 11.2722 9.42337C11.5208 9.26119 11.7316 9.04524 11.8983 8.79967C12.0587 8.56326 12.022 8.27157 11.8397 8.04982C11.8125 8.01683 11.7835 7.98476 11.7533 7.95452C10.0086 6.20955 8.26393 4.46459 6.51897 2.71993C6.25843 2.45939 5.95513 2.40471 5.67076 2.56446C5.59868 2.60508 5.53943 2.66189 5.48139 2.71993C3.73643 4.46459 1.99237 6.20986 0.245878 7.9533C0.127368 8.07151 0.0482597 8.20773 0 8.36534C0.000305176 8.45116 0.000306129 8.53699 0.000306129 8.62313Z" fill="white"/>
</g>
<defs>
<clipPath id="clip0_15_7390">
<rect width="12" height="12" fill="white" transform="matrix(-1 0 0 1 12 0)"/>
</clipPath>
</defs>
</svg>
