<svg width="14" height="14" viewBox="0 0 14 14" fill="none" xmlns="http://www.w3.org/2000/svg">
<path d="M8.03399 2.62522C8.23488 2.70184 8.3645 2.86687 8.50994 3.01141C8.75247 3.25194 8.75225 3.52544 8.51105 3.76686C7.45449 4.82387 6.39793 5.8811 5.33914 6.9361C5.28435 6.99067 5.29014 7.01472 5.34092 7.06572C6.39926 8.12095 7.45582 9.17817 8.51239 10.2352C8.69947 10.4223 8.74691 10.6461 8.61751 10.8443C8.49925 11.0256 8.34179 11.1793 8.16272 11.3009C7.99034 11.4178 7.77765 11.3911 7.61596 11.2581C7.5919 11.2383 7.56852 11.2171 7.54647 11.1951C6.2741 9.92293 5.00173 8.65078 3.72958 7.37841C3.5396 7.18844 3.49973 6.96728 3.61621 6.75993C3.64584 6.70737 3.68726 6.66416 3.72958 6.62185C5.00173 5.34948 6.27432 4.07777 7.54558 2.80429C7.63177 2.71787 7.7311 2.66019 7.84602 2.625C7.90861 2.62522 7.97119 2.62522 8.03399 2.62522Z" fill="white"/>
</svg>
