<svg width="16" height="16" viewBox="0 0 16 16" fill="none" xmlns="http://www.w3.org/2000/svg">
<path opacity="0.6" d="M3.00025 5.75189C3.08781 5.5223 3.27642 5.37416 3.44161 5.20795C3.71651 4.93077 4.02907 4.93102 4.30499 5.20668C5.51299 6.41418 6.72125 7.62168 7.92697 8.83172C7.98933 8.89433 8.01682 8.88772 8.07511 8.82968C9.28108 7.62015 10.4893 6.41265 11.6974 5.20515C11.9112 4.99135 12.167 4.93713 12.3935 5.08501C12.6007 5.22017 12.7763 5.40012 12.9153 5.60477C13.0489 5.80178 13.0184 6.04485 12.8664 6.22964C12.8438 6.25713 12.8196 6.28386 12.7944 6.30906C11.3405 7.7632 9.88661 9.21734 8.43247 10.6712C8.21536 10.8883 7.96261 10.9339 7.72564 10.8008C7.66557 10.7669 7.61619 10.7196 7.56783 10.6712C6.11369 9.21734 4.66031 7.76294 3.2049 6.31007C3.10614 6.21157 3.04022 6.09805 3 5.96671C3.00025 5.89519 3.00025 5.82366 3.00025 5.75189Z" fill="#0A1E42"/>
</svg>
