<svg width="28" height="28" viewBox="0 0 28 28" fill="none" xmlns="http://www.w3.org/2000/svg">
<path d="M17.9342 5.25044C18.336 5.40367 18.5952 5.73374 18.8861 6.02282C19.3712 6.50389 19.3707 7.05088 18.8883 7.53372C16.7752 9.64774 14.6621 11.7622 12.5445 13.8722C12.4349 13.9813 12.4465 14.0294 12.5481 14.1314C14.6647 16.2419 16.7779 18.3563 18.891 20.4704C19.2651 20.8445 19.36 21.2922 19.1012 21.6886C18.8647 22.0512 18.5498 22.3585 18.1917 22.6017C17.8469 22.8356 17.4215 22.7821 17.0981 22.5162C17.05 22.4766 17.0032 22.4343 16.9592 22.3902C14.4144 19.8459 11.8697 17.3016 9.32536 14.7568C8.94541 14.3769 8.86568 13.9346 9.09864 13.5199C9.15788 13.4147 9.24073 13.3283 9.32536 13.2437C11.8697 10.699 14.4149 8.15554 16.9574 5.60857C17.1298 5.43575 17.3284 5.32038 17.5583 5.25C17.6834 5.25044 17.8086 5.25044 17.9342 5.25044Z" fill="#002464"/>
<path d="M17.9342 5.25044C18.336 5.40367 18.5952 5.73374 18.8861 6.02282C19.3712 6.50389 19.3707 7.05088 18.8883 7.53372C16.7752 9.64774 14.6621 11.7622 12.5445 13.8722C12.4349 13.9813 12.4465 14.0294 12.5481 14.1314C14.6647 16.2419 16.7779 18.3563 18.891 20.4704C19.2651 20.8445 19.36 21.2922 19.1012 21.6886C18.8647 22.0512 18.5498 22.3585 18.1917 22.6017C17.8469 22.8356 17.4215 22.7821 17.0981 22.5162C17.05 22.4766 17.0032 22.4343 16.9592 22.3902C14.4144 19.8459 11.8697 17.3016 9.32536 14.7568C8.94541 14.3769 8.86568 13.9346 9.09864 13.5199C9.15788 13.4147 9.24073 13.3283 9.32536 13.2437C11.8697 10.699 14.4149 8.15554 16.9574 5.60857C17.1298 5.43575 17.3284 5.32038 17.5583 5.25C17.6834 5.25044 17.8086 5.25044 17.9342 5.25044Z" fill="black" fill-opacity="0.2"/>
</svg>
