<svg width="12" height="12" viewBox="0 0 12 12" fill="none" xmlns="http://www.w3.org/2000/svg">
<g clip-path="url(#clip0_528_12711)">
<path d="M0.000306129 3.37687C0.105376 3.10137 0.331706 2.9236 0.529935 2.72415C0.859809 2.39153 1.23489 2.39184 1.56598 2.72263C3.01559 4.17162 4.46551 5.62062 5.91237 7.07267C5.9872 7.14781 6.02019 7.13987 6.09013 7.07023C7.5373 5.61879 8.98721 4.16979 10.4368 2.72079C10.6934 2.46422 11.0004 2.39917 11.2722 2.57663C11.5208 2.73881 11.7316 2.95476 11.8983 3.20033C12.0587 3.43674 12.022 3.72843 11.8397 3.95018C11.8125 3.98317 11.7835 4.01524 11.7533 4.04548C10.0086 5.79045 8.26393 7.53541 6.51897 9.28007C6.25843 9.54061 5.95513 9.59529 5.67076 9.43554C5.59868 9.39492 5.53943 9.33811 5.48139 9.28007C3.73643 7.53541 1.99237 5.79014 0.245878 4.0467C0.127368 3.92849 0.0482597 3.79227 0 3.63466C0.000305176 3.54884 0.000306129 3.46301 0.000306129 3.37687Z" fill="#0A1E42"/>
</g>
<defs>
<clipPath id="clip0_528_12711">
<rect width="12" height="12" fill="white" transform="matrix(-1 0 0 -1 12 12)"/>
</clipPath>
</defs>
</svg>
