<svg width="14" height="14" viewBox="0 0 14 14" fill="none" xmlns="http://www.w3.org/2000/svg">
<path d="M5.96601 11.3748C5.76512 11.2982 5.6355 11.1331 5.49006 10.9886C5.24753 10.7481 5.24775 10.4746 5.48895 10.2331C6.54551 9.17613 7.60207 8.1189 8.66086 7.0639C8.71565 7.00933 8.70986 6.98528 8.65908 6.93428C7.60074 5.87905 6.54418 4.82183 5.48761 3.76482C5.30053 3.57774 5.25309 3.35391 5.38249 3.15569C5.50075 2.9744 5.65821 2.82073 5.83728 2.69913C6.00966 2.5822 6.22235 2.60893 6.38404 2.74189C6.4081 2.76171 6.43148 2.78287 6.45353 2.80492C7.7259 4.07707 8.99827 5.34922 10.2704 6.62159C10.4604 6.81156 10.5003 7.03272 10.3838 7.24007C10.3542 7.29263 10.3127 7.33584 10.2704 7.37815C8.99827 8.65052 7.72568 9.92223 6.45442 11.1957C6.36823 11.2821 6.2689 11.3398 6.15398 11.375C6.09139 11.3748 6.02881 11.3748 5.96601 11.3748Z" fill="white"/>
</svg>
