<svg width="16" height="16" viewBox="0 0 16 16" fill="none" xmlns="http://www.w3.org/2000/svg">
<path d="M2.01018 7.19702H13.9998C13.9998 7.27923 13.9998 7.35162 13.9998 7.42442C13.9998 9.19006 14.0002 10.9557 13.9998 12.7213C13.9994 13.8534 13.2537 14.5929 12.1126 14.5929C9.36676 14.5929 6.62046 14.5933 3.87458 14.5929C2.75793 14.5929 2.00148 13.8494 2.00066 12.7496C1.99941 10.9704 2.00024 9.19088 2.00066 7.41174C2.00066 7.34508 2.00645 7.27841 2.00976 7.19702H2.01018Z" fill="#002464"/>
<path d="M2.01018 7.19702H13.9998C13.9998 7.27923 13.9998 7.35162 13.9998 7.42442C13.9998 9.19006 14.0002 10.9557 13.9998 12.7213C13.9994 13.8534 13.2537 14.5929 12.1126 14.5929C9.36676 14.5929 6.62046 14.5933 3.87458 14.5929C2.75793 14.5929 2.00148 13.8494 2.00066 12.7496C1.99941 10.9704 2.00024 9.19088 2.00066 7.41174C2.00066 7.34508 2.00645 7.27841 2.00976 7.19702H2.01018Z" fill="black" fill-opacity="0.2"/>
<path d="M11.9551 2.7669C12.9747 2.64101 13.8834 3.29612 13.9696 4.2633C14.0305 4.94856 13.9812 5.6436 13.9812 6.3476H2.026C2.01647 6.33212 2.00321 6.32112 2.00321 6.30971C2.01025 5.60408 1.97628 4.89519 2.03719 4.19404C2.1155 3.2949 3.10699 2.61127 4.04504 2.77341C4.04504 2.84064 4.04504 2.91275 4.04504 2.98486C4.0467 3.47375 4.03303 3.96345 4.05374 4.45153C4.07985 5.0663 4.541 5.5393 5.15338 5.61508C5.73511 5.68719 6.30689 5.31564 6.48173 4.73712C6.524 4.59656 6.53353 4.44297 6.5356 4.29508C6.54223 3.86038 6.53808 3.42567 6.53808 2.99097C6.53808 2.91764 6.53808 2.8443 6.53808 2.75834H9.46162C9.46162 2.87608 9.46037 2.98852 9.46162 3.10097C9.467 3.58293 9.44629 4.06693 9.48606 4.54604C9.53744 5.16938 10.0955 5.62853 10.7307 5.61997C11.3605 5.61182 11.9041 5.12823 11.9402 4.50367C11.9692 4.00256 11.9518 3.49901 11.9547 2.99667C11.9551 2.92334 11.9547 2.85001 11.9547 2.76608L11.9551 2.7669Z" fill="#002464"/>
<path d="M11.9551 2.7669C12.9747 2.64101 13.8834 3.29612 13.9696 4.2633C14.0305 4.94856 13.9812 5.6436 13.9812 6.3476H2.026C2.01647 6.33212 2.00321 6.32112 2.00321 6.30971C2.01025 5.60408 1.97628 4.89519 2.03719 4.19404C2.1155 3.2949 3.10699 2.61127 4.04504 2.77341C4.04504 2.84064 4.04504 2.91275 4.04504 2.98486C4.0467 3.47375 4.03303 3.96345 4.05374 4.45153C4.07985 5.0663 4.541 5.5393 5.15338 5.61508C5.73511 5.68719 6.30689 5.31564 6.48173 4.73712C6.524 4.59656 6.53353 4.44297 6.5356 4.29508C6.54223 3.86038 6.53808 3.42567 6.53808 2.99097C6.53808 2.91764 6.53808 2.8443 6.53808 2.75834H9.46162C9.46162 2.87608 9.46037 2.98852 9.46162 3.10097C9.467 3.58293 9.44629 4.06693 9.48606 4.54604C9.53744 5.16938 10.0955 5.62853 10.7307 5.61997C11.3605 5.61182 11.9041 5.12823 11.9402 4.50367C11.9692 4.00256 11.9518 3.49901 11.9547 2.99667C11.9551 2.92334 11.9547 2.85001 11.9547 2.76608L11.9551 2.7669Z" fill="black" fill-opacity="0.2"/>
<path d="M4.84876 3.17645C4.84876 2.77662 4.84634 2.37637 4.84957 1.97654C4.85199 1.68722 5.0067 1.50551 5.24461 1.50013C5.48818 1.49434 5.65743 1.68266 5.65864 1.97985C5.66227 2.77289 5.66187 3.56635 5.65864 4.35939C5.65743 4.6574 5.49141 4.84946 5.25148 4.84821C5.00952 4.84697 4.85118 4.65699 4.84916 4.35608C4.84634 3.96287 4.84836 3.56966 4.84836 3.17686L4.84876 3.17645Z" fill="#002464"/>
<path d="M4.84876 3.17645C4.84876 2.77662 4.84634 2.37637 4.84957 1.97654C4.85199 1.68722 5.0067 1.50551 5.24461 1.50013C5.48818 1.49434 5.65743 1.68266 5.65864 1.97985C5.66227 2.77289 5.66187 3.56635 5.65864 4.35939C5.65743 4.6574 5.49141 4.84946 5.25148 4.84821C5.00952 4.84697 4.85118 4.65699 4.84916 4.35608C4.84634 3.96287 4.84836 3.56966 4.84836 3.17686L4.84876 3.17645Z" fill="black" fill-opacity="0.2"/>
<path d="M11.1009 3.17685C11.1009 3.57006 11.1028 3.96328 11.1002 4.35607C11.0983 4.6574 10.9502 4.84655 10.723 4.84821C10.4981 4.84987 10.3421 4.65699 10.341 4.35939C10.3383 3.56634 10.338 2.77288 10.341 1.97983C10.3421 1.68306 10.5004 1.49473 10.7287 1.50011C10.9517 1.50549 11.0971 1.68678 11.0998 1.97652C11.1032 2.37635 11.1005 2.7766 11.1005 3.17644L11.1009 3.17685Z" fill="#002464"/>
<path d="M11.1009 3.17685C11.1009 3.57006 11.1028 3.96328 11.1002 4.35607C11.0983 4.6574 10.9502 4.84655 10.723 4.84821C10.4981 4.84987 10.3421 4.65699 10.341 4.35939C10.3383 3.56634 10.338 2.77288 10.341 1.97983C10.3421 1.68306 10.5004 1.49473 10.7287 1.50011C10.9517 1.50549 11.0971 1.68678 11.0998 1.97652C11.1032 2.37635 11.1005 2.7766 11.1005 3.17644L11.1009 3.17685Z" fill="black" fill-opacity="0.2"/>
</svg>
