<svg width="16" height="16" viewBox="0 0 16 16" fill="none" xmlns="http://www.w3.org/2000/svg">
<g clip-path="url(#clip0_110_2555)">
<path d="M11.8938 5.17486C11.4055 2.3459 8.72382 0.156061 5.55832 0.587818C2.57323 0.995533 0.451241 3.65069 0.701123 6.64995C0.878539 8.78169 1.95803 10.3284 3.85063 11.3121C3.98457 11.3817 4.08302 11.3782 4.21296 11.2951C4.7552 10.948 5.29944 10.6044 5.84418 10.2618C5.84268 10.2427 5.84168 10.2237 5.84118 10.2037C5.83918 10.1035 5.83968 9.38024 5.84018 8.91692V8.90691C5.83918 8.79571 5.84068 8.68051 5.84068 8.54527C5.62379 8.54527 5.43488 8.54778 5.24597 8.54477C4.89413 8.53976 4.67274 8.35344 4.66524 8.06042C4.65725 7.7614 4.89113 7.55053 5.24946 7.54552C5.69076 7.54001 6.13205 7.55153 6.57334 7.53951C6.91368 7.53049 7.11808 7.19641 6.93566 6.93294C6.8637 6.82776 6.70128 6.75313 6.56884 6.72959C6.34145 6.68902 6.10306 6.71707 5.87367 6.68501C5.19849 6.59084 4.7467 6.09297 4.67024 5.38273C4.60927 4.81173 4.98309 4.19264 5.56481 3.99079C5.8052 3.90714 5.87967 3.79244 5.84068 3.56404C5.83769 3.54801 5.84018 3.53098 5.84018 3.51445C5.84268 3.09872 6.0181 2.87232 6.33645 2.87383C6.6488 2.87583 6.83571 3.11575 6.83871 3.51896C6.83971 3.62665 6.83871 3.73434 6.83871 3.87508C7.05111 3.87508 7.24802 3.87258 7.44492 3.87608C7.76977 3.88159 7.99066 4.07794 7.99816 4.36344C8.00616 4.65745 7.77926 4.87233 7.44492 4.87534C7.02012 4.87984 6.59533 4.87484 6.17103 4.87734C5.86467 4.87884 5.67626 5.03261 5.66727 5.28055C5.65777 5.538 5.85068 5.7078 6.16803 5.71781C6.30946 5.72232 6.45089 5.71631 6.59233 5.72082C7.32998 5.74386 7.87472 6.2212 7.98617 6.93996C8.08912 7.60062 7.68381 8.24525 7.01763 8.48116C6.96365 8.50019 6.90918 8.51873 6.83871 8.54327C6.83871 8.67149 6.84171 8.79721 6.83921 8.92293V8.92995C6.83971 9.14132 6.84021 9.40478 6.84021 9.63819C7.52688 9.23198 8.21306 9.31963 8.78679 9.88963C9.08165 10.1821 9.37051 10.4817 9.65787 10.7732C9.70335 10.7516 9.72734 10.7436 9.74733 10.7296C9.79481 10.6955 9.84129 10.66 9.88526 10.6219C11.5575 9.17788 12.2721 7.36721 11.8938 5.17486Z" fill="white"/>
<path d="M11.8938 5.17486C11.4055 2.3459 8.72382 0.156061 5.55832 0.587818C2.57323 0.995533 0.451241 3.65069 0.701123 6.64995C0.878539 8.78169 1.95803 10.3284 3.85063 11.3121C3.98457 11.3817 4.08302 11.3782 4.21296 11.2951C4.7552 10.948 5.29944 10.6044 5.84418 10.2618C5.84268 10.2427 5.84168 10.2237 5.84118 10.2037C5.83918 10.1035 5.83968 9.38024 5.84018 8.91692V8.90691C5.83918 8.79571 5.84068 8.68051 5.84068 8.54527C5.62379 8.54527 5.43488 8.54778 5.24597 8.54477C4.89413 8.53976 4.67274 8.35344 4.66524 8.06042C4.65725 7.7614 4.89113 7.55053 5.24946 7.54552C5.69076 7.54001 6.13205 7.55153 6.57334 7.53951C6.91368 7.53049 7.11808 7.19641 6.93566 6.93294C6.8637 6.82776 6.70128 6.75313 6.56884 6.72959C6.34145 6.68902 6.10306 6.71707 5.87367 6.68501C5.19849 6.59084 4.7467 6.09297 4.67024 5.38273C4.60927 4.81173 4.98309 4.19264 5.56481 3.99079C5.8052 3.90714 5.87967 3.79244 5.84068 3.56404C5.83769 3.54801 5.84018 3.53098 5.84018 3.51445C5.84268 3.09872 6.0181 2.87232 6.33645 2.87383C6.6488 2.87583 6.83571 3.11575 6.83871 3.51896C6.83971 3.62665 6.83871 3.73434 6.83871 3.87508C7.05111 3.87508 7.24802 3.87258 7.44492 3.87608C7.76977 3.88159 7.99066 4.07794 7.99816 4.36344C8.00616 4.65745 7.77926 4.87233 7.44492 4.87534C7.02012 4.87984 6.59533 4.87484 6.17103 4.87734C5.86467 4.87884 5.67626 5.03261 5.66727 5.28055C5.65777 5.538 5.85068 5.7078 6.16803 5.71781C6.30946 5.72232 6.45089 5.71631 6.59233 5.72082C7.32998 5.74386 7.87472 6.2212 7.98617 6.93996C8.08912 7.60062 7.68381 8.24525 7.01763 8.48116C6.96365 8.50019 6.90918 8.51873 6.83871 8.54327C6.83871 8.67149 6.84171 8.79721 6.83921 8.92293V8.92995C6.83971 9.14132 6.84021 9.40478 6.84021 9.63819C7.52688 9.23198 8.21306 9.31963 8.78679 9.88963C9.08165 10.1821 9.37051 10.4817 9.65787 10.7732C9.70335 10.7516 9.72734 10.7436 9.74733 10.7296C9.79481 10.6955 9.84129 10.66 9.88526 10.6219C11.5575 9.17788 12.2721 7.36721 11.8938 5.17486Z" fill="white" fill-opacity="0.2"/>
<path d="M10.3057 12.8136C11.2247 11.8925 12.1188 10.9964 13.0494 10.0643C12.8005 9.82434 12.5411 9.56889 12.2763 9.31946C12.0364 9.09356 11.9204 8.8311 12.0529 8.51054C12.1848 8.19098 12.4502 8.0908 12.7795 8.09331C13.5961 8.09932 14.4122 8.09431 15.2289 8.09581C15.7371 8.09681 15.997 8.35627 15.998 8.86466C15.9995 9.69161 15.9955 10.5186 16 11.345C16.0015 11.6671 15.8915 11.9215 15.5857 12.0497C15.2788 12.1785 15.0185 12.0788 14.7961 11.8459C14.5432 11.5809 14.2858 11.3195 14.0164 11.042C13.9325 11.1201 13.866 11.1792 13.803 11.2423C12.8425 12.2045 11.8829 13.1677 10.9224 14.1294C10.5006 14.5516 10.1648 14.5526 9.74795 14.1339C9.02529 13.4076 8.30364 12.6804 7.57498 11.9466C6.71539 12.4795 5.87379 13.0014 5.03219 13.5233C3.71631 14.3398 2.40193 15.1577 1.08456 15.9716C0.628776 16.2531 0.130512 16.0693 0.0180656 15.5879C-0.0504019 15.2944 0.0765379 15.028 0.385391 14.8361C1.50986 14.1369 2.63532 13.4402 3.76029 12.742C4.90675 12.0307 6.0527 11.319 7.19916 10.6077C7.61946 10.3468 7.88883 10.3783 8.24316 10.7344C8.93084 11.4262 9.61701 12.1194 10.3062 12.8146L10.3057 12.8136Z" fill="white"/>
<path d="M10.3057 12.8136C11.2247 11.8925 12.1188 10.9964 13.0494 10.0643C12.8005 9.82434 12.5411 9.56889 12.2763 9.31946C12.0364 9.09356 11.9204 8.8311 12.0529 8.51054C12.1848 8.19098 12.4502 8.0908 12.7795 8.09331C13.5961 8.09932 14.4122 8.09431 15.2289 8.09581C15.7371 8.09681 15.997 8.35627 15.998 8.86466C15.9995 9.69161 15.9955 10.5186 16 11.345C16.0015 11.6671 15.8915 11.9215 15.5857 12.0497C15.2788 12.1785 15.0185 12.0788 14.7961 11.8459C14.5432 11.5809 14.2858 11.3195 14.0164 11.042C13.9325 11.1201 13.866 11.1792 13.803 11.2423C12.8425 12.2045 11.8829 13.1677 10.9224 14.1294C10.5006 14.5516 10.1648 14.5526 9.74795 14.1339C9.02529 13.4076 8.30364 12.6804 7.57498 11.9466C6.71539 12.4795 5.87379 13.0014 5.03219 13.5233C3.71631 14.3398 2.40193 15.1577 1.08456 15.9716C0.628776 16.2531 0.130512 16.0693 0.0180656 15.5879C-0.0504019 15.2944 0.0765379 15.028 0.385391 14.8361C1.50986 14.1369 2.63532 13.4402 3.76029 12.742C4.90675 12.0307 6.0527 11.319 7.19916 10.6077C7.61946 10.3468 7.88883 10.3783 8.24316 10.7344C8.93084 11.4262 9.61701 12.1194 10.3062 12.8146L10.3057 12.8136Z" fill="white" fill-opacity="0.2"/>
</g>
<defs>
<clipPath id="clip0_110_2555">
<rect width="16" height="16" fill="white"/>
</clipPath>
</defs>
</svg>
