<svg width="16" height="16" viewBox="0 0 16 16" fill="none" xmlns="http://www.w3.org/2000/svg">
<path d="M8.87726 4.6945C8.87726 4.83738 8.87726 4.93031 8.87726 5.02325C8.87726 6.81159 8.87842 8.60052 8.8761 10.3889C8.87552 10.7536 8.66758 11.0434 8.34291 11.1526C8.0281 11.2589 7.67322 11.1486 7.46993 10.8797C7.3468 10.7164 7.31079 10.5306 7.31079 10.3285C7.31311 8.54708 7.31253 6.76571 7.31253 4.98433C7.31253 4.90534 7.31253 4.82577 7.31253 4.74329C7.22657 4.73806 7.20043 4.8095 7.15861 4.85074C6.75204 5.25325 6.34953 5.65982 5.94354 6.06233C5.57414 6.42825 5.10251 6.44393 4.77144 6.10589C4.44618 5.77367 4.46709 5.31017 4.8272 4.94948C5.71179 4.06257 6.59754 3.17682 7.48445 2.29165C7.87302 1.90424 8.31677 1.9025 8.70301 2.28816C9.58993 3.17275 10.4757 4.0585 11.3603 4.94542C11.7273 5.31307 11.743 5.78644 11.405 6.11809C11.0728 6.44335 10.6098 6.4236 10.2486 6.06407C9.80193 5.62149 9.35876 5.17542 8.87726 4.6945Z" fill="white"/>
<path d="M8.07034 13.9992C6.65197 13.9992 5.23361 14.0016 3.81525 13.9981C3.22629 13.9963 2.84005 13.4434 3.06483 12.9224C3.2048 12.5971 3.47024 12.4421 3.82105 12.4409C4.51571 12.438 5.21038 12.4397 5.90504 12.4397C8.0471 12.4397 10.1892 12.4391 12.3312 12.4403C12.8203 12.4409 13.1653 12.7447 13.1816 13.1803C13.199 13.6502 12.8592 13.9969 12.369 13.9981C11.2184 14.0004 10.0678 13.9986 8.91717 13.9986C8.63489 13.9992 8.35261 13.9992 8.07034 13.9992Z" fill="white"/>
</svg>
