<svg width="16" height="16" viewBox="0 0 16 16" fill="none" xmlns="http://www.w3.org/2000/svg">
<g clip-path="url(#clip0_110_2539)">
<path d="M13.9495 10.9126C14.4472 11.4821 14.9366 12.0423 15.4254 12.6024C15.5592 12.7558 15.6939 12.9082 15.8262 13.0629C16.0643 13.342 16.0564 13.6897 15.8085 13.8994C15.5601 14.1096 15.2194 14.0667 14.9771 13.7899C14.3913 13.1207 13.8074 12.4496 13.2225 11.7799C13.1848 11.737 13.1456 11.6956 13.1079 11.6546C10.6067 13.3472 7.53005 12.4678 6.10355 10.3828C4.6435 8.24838 5.00327 5.4061 6.95871 3.70884C8.85216 2.06564 11.7313 2.10572 13.5954 3.78294C15.5718 5.56129 15.898 8.74843 13.9495 10.9126ZM10.2418 3.61471C8.11864 3.59886 6.34588 5.33713 6.32631 7.45428C6.30581 9.65344 8.03196 11.409 10.2339 11.4281C12.3431 11.4467 14.1234 9.69166 14.1415 7.57638C14.1597 5.38793 12.4308 3.63102 10.2418 3.61471Z" fill="#002464"/>
<path d="M13.9495 10.9126C14.4472 11.4821 14.9366 12.0423 15.4254 12.6024C15.5592 12.7558 15.6939 12.9082 15.8262 13.0629C16.0643 13.342 16.0564 13.6897 15.8085 13.8994C15.5601 14.1096 15.2194 14.0667 14.9771 13.7899C14.3913 13.1207 13.8074 12.4496 13.2225 11.7799C13.1848 11.737 13.1456 11.6956 13.1079 11.6546C10.6067 13.3472 7.53005 12.4678 6.10355 10.3828C4.6435 8.24838 5.00327 5.4061 6.95871 3.70884C8.85216 2.06564 11.7313 2.10572 13.5954 3.78294C15.5718 5.56129 15.898 8.74843 13.9495 10.9126ZM10.2418 3.61471C8.11864 3.59886 6.34588 5.33713 6.32631 7.45428C6.30581 9.65344 8.03196 11.409 10.2339 11.4281C12.3431 11.4467 14.1234 9.69166 14.1415 7.57638C14.1597 5.38793 12.4308 3.63102 10.2418 3.61471Z" fill="black" fill-opacity="0.2"/>
<path d="M2.78467 4.3557C2.06373 4.3557 1.3428 4.35663 0.622323 4.35524C0.251834 4.35524 0.00297681 4.12828 0.00390886 3.79507C0.00484091 3.46047 0.250436 3.23957 0.625585 3.23911C2.08471 3.23864 3.54383 3.23771 5.00295 3.24004C5.31798 3.24051 5.55239 3.45534 5.58082 3.75546C5.60598 4.02296 5.41165 4.2844 5.13763 4.34219C5.07052 4.35663 4.99922 4.35477 4.92978 4.35524C4.2149 4.35617 3.50002 4.3557 2.78467 4.3557Z" fill="#002464"/>
<path d="M2.78467 4.3557C2.06373 4.3557 1.3428 4.35663 0.622323 4.35524C0.251834 4.35524 0.00297681 4.12828 0.00390886 3.79507C0.00484091 3.46047 0.250436 3.23957 0.625585 3.23911C2.08471 3.23864 3.54383 3.23771 5.00295 3.24004C5.31798 3.24051 5.55239 3.45534 5.58082 3.75546C5.60598 4.02296 5.41165 4.2844 5.13763 4.34219C5.07052 4.35663 4.99922 4.35477 4.92978 4.35524C4.2149 4.35617 3.50002 4.3557 2.78467 4.3557Z" fill="black" fill-opacity="0.2"/>
<path d="M2.41884 9.19949C3.04611 9.19949 3.67338 9.19576 4.30065 9.20136C4.55277 9.20369 4.76294 9.38171 4.82026 9.61518C4.88038 9.86031 4.77273 10.1259 4.54764 10.2373C4.45257 10.2844 4.337 10.311 4.23074 10.3114C3.02281 10.3166 1.81441 10.3166 0.606009 10.3133C0.247637 10.3124 0.00390625 10.0789 0.00390625 9.75266C0.00390625 9.42179 0.241578 9.19996 0.606475 9.19856C1.21044 9.19623 1.81488 9.19809 2.41884 9.19809C2.41884 9.19856 2.41884 9.19903 2.41884 9.19949Z" fill="#002464"/>
<path d="M2.41884 9.19949C3.04611 9.19949 3.67338 9.19576 4.30065 9.20136C4.55277 9.20369 4.76294 9.38171 4.82026 9.61518C4.88038 9.86031 4.77273 10.1259 4.54764 10.2373C4.45257 10.2844 4.337 10.311 4.23074 10.3114C3.02281 10.3166 1.81441 10.3166 0.606009 10.3133C0.247637 10.3124 0.00390625 10.0789 0.00390625 9.75266C0.00390625 9.42179 0.241578 9.19996 0.606475 9.19856C1.21044 9.19623 1.81488 9.19809 2.41884 9.19809C2.41884 9.19856 2.41884 9.19903 2.41884 9.19949Z" fill="black" fill-opacity="0.2"/>
<path d="M2.03336 7.32938C1.53425 7.32938 1.03513 7.33357 0.535556 7.32752C0.295554 7.32472 0.0979597 7.16674 0.027124 6.94631C-0.0423135 6.73194 0.0233959 6.48867 0.203281 6.35026C0.274117 6.29574 0.366856 6.23655 0.450274 6.23609C1.51188 6.2277 2.57301 6.22164 3.63462 6.23562C3.86949 6.23888 4.04751 6.44906 4.08479 6.68068C4.12254 6.91509 4.04006 7.11361 3.84013 7.23431C3.73761 7.29629 3.6006 7.32472 3.4785 7.32705C2.99709 7.3373 2.51523 7.33124 2.03336 7.33124C2.03336 7.33031 2.03336 7.32985 2.03336 7.32938Z" fill="#002464"/>
<path d="M2.03336 7.32938C1.53425 7.32938 1.03513 7.33357 0.535556 7.32752C0.295554 7.32472 0.0979597 7.16674 0.027124 6.94631C-0.0423135 6.73194 0.0233959 6.48867 0.203281 6.35026C0.274117 6.29574 0.366856 6.23655 0.450274 6.23609C1.51188 6.2277 2.57301 6.22164 3.63462 6.23562C3.86949 6.23888 4.04751 6.44906 4.08479 6.68068C4.12254 6.91509 4.04006 7.11361 3.84013 7.23431C3.73761 7.29629 3.6006 7.32472 3.4785 7.32705C2.99709 7.3373 2.51523 7.33124 2.03336 7.33124C2.03336 7.33031 2.03336 7.32985 2.03336 7.32938Z" fill="black" fill-opacity="0.2"/>
</g>
<defs>
<clipPath id="clip0_110_2539">
<rect width="16" height="16" fill="white"/>
</clipPath>
</defs>
</svg>
