<svg width="16" height="16" viewBox="0 0 16 16" fill="none" xmlns="http://www.w3.org/2000/svg">
<path d="M1 2.43981C1.0391 2.42921 1.03618 2.39011 1.04824 2.36379C1.14655 2.14927 1.31613 2.01953 1.54673 2.01551C2.07958 2.00637 2.61389 1.98042 3.14528 2.02683C3.85208 2.08823 4.40247 2.55347 4.60896 3.23506C4.70508 3.55228 4.80119 3.87024 4.88671 4.19038C4.91851 4.30989 4.96565 4.35119 5.09722 4.35119C7.99133 4.34607 10.8851 4.34863 13.7792 4.34571C14.1023 4.34534 14.3939 4.42099 14.6315 4.64612C14.9871 4.98344 15.0802 5.3902 14.933 5.85617C14.5755 6.98655 14.2196 8.1173 13.8629 9.24804C13.7891 9.48194 13.7324 9.72278 13.6005 9.93366C13.2807 10.4446 12.8206 10.745 12.2172 10.7519C10.8365 10.768 9.45538 10.7589 8.07466 10.7596C7.65547 10.7596 7.23592 10.7662 6.81673 10.7549C6.10115 10.7359 5.47694 10.267 5.26862 9.58025C4.9324 8.47143 4.60969 7.35896 4.28187 6.24758C4.02458 5.37595 3.76876 4.50432 3.51184 3.63269C3.41499 3.30486 3.24687 3.17841 2.90626 3.17805C2.53239 3.17768 2.15816 3.16233 1.78538 3.18243C1.41919 3.20253 1.14619 3.09436 1 2.74059C1 2.64045 1 2.54031 1 2.43981Z" fill="white"/>
<path d="M11.2819 13.6793C11.2549 13.6332 11.2033 13.6413 11.1628 13.6285C10.585 13.4465 10.2433 12.8793 10.3551 12.2839C10.4658 11.6952 11.0206 11.295 11.6441 11.3549C12.2051 11.4087 12.659 11.9167 12.6685 12.5014C12.678 13.0701 12.261 13.562 11.6916 13.6555C11.6817 13.657 11.6737 13.6709 11.6646 13.6789C11.5374 13.6793 11.4095 13.6793 11.2819 13.6793Z" fill="white"/>
<path d="M7.18053 13.6793C7.15677 13.6296 7.10488 13.6377 7.06431 13.6245C6.52708 13.4498 6.17514 12.8991 6.25956 12.3626C6.35239 11.7712 6.81835 11.3575 7.39981 11.3488C7.97578 11.3404 8.46587 11.7457 8.56783 12.3143C8.6793 12.9367 8.24988 13.5503 7.63041 13.6523C7.61178 13.6552 7.59496 13.657 7.59021 13.679C7.45389 13.6793 7.31721 13.6793 7.18053 13.6793Z" fill="white"/>
</svg>
