<svg width="28" height="28" viewBox="0 0 28 28" fill="none" xmlns="http://www.w3.org/2000/svg">
<path d="M21.3104 5.3469H19.7751V4.26429C19.7751 3.45588 18.9503 2.8013 17.9316 2.8013C14.6429 2.81417 9.23651 2.79228 6.01427 2.80323C5.82044 2.80323 5.62336 2.83283 5.44412 2.88239C4.72311 3.08128 4.20648 3.62451 4.20648 4.26429V12.8325C4.22594 15.3909 4.16836 17.9539 4.22838 20.5124C4.28353 20.8889 4.46682 21.2191 4.81313 21.4714C5.17485 21.745 5.63714 21.8679 6.13106 21.8641C6.32977 21.8634 6.52928 21.8641 6.7288 21.8641L6.72474 23.0928C6.72474 24.2545 7.91615 25.2001 9.38007 25.2001H21.2609C22.7248 25.2001 23.9162 24.2545 23.9162 23.0928L23.9649 7.45419C23.9649 6.29241 22.7743 5.3469 21.3104 5.3469ZM14.2828 10.6885C14.9997 10.6827 15.7167 10.684 16.4336 10.6904C16.9527 10.6608 17.0516 11.2768 16.5074 11.3193C16.2633 11.3379 16.0346 11.3225 15.7856 11.3263C15.7856 12.0105 15.7783 12.6703 15.7905 13.33C15.7937 13.4935 15.7021 13.5881 15.5447 13.6608C15.3339 13.76 15.0297 13.6389 15.0054 13.4465C14.9932 13.3525 15.0005 13.2586 15.0005 13.1639C14.9973 12.5911 14.9932 12.0176 14.9932 11.4435C14.9949 11.3521 14.9649 11.3238 14.8424 11.3283C14.4807 11.3353 13.8894 11.3862 13.8781 10.9904C13.8829 10.8378 14.0638 10.6898 14.2828 10.6885ZM11.0662 10.9479C11.097 10.8037 11.2114 10.7046 11.3939 10.702C11.9567 10.6917 12.5204 10.6846 13.0824 10.6962C13.3493 10.702 13.4523 10.8088 13.4571 11.0013C13.4693 11.466 12.6915 11.2987 12.3095 11.3225H11.8724V11.8754C12.2738 11.8754 12.668 11.8844 13.0622 11.8728C13.299 11.8651 13.4669 12.0337 13.4612 12.2043C13.4539 12.3735 13.312 12.4965 13.1003 12.4984C12.6923 12.5029 12.2836 12.4997 11.8756 12.5003C11.8529 12.7938 11.8748 13.0822 11.8651 13.3757C11.8351 13.7973 11.1149 13.8082 11.0654 13.3828C11.0703 12.5718 11.0216 11.7563 11.0662 10.9479ZM8.30545 12.1315C8.30464 12.5473 8.30464 12.9644 8.30464 13.3802C8.30464 13.5521 8.14648 13.6891 7.93643 13.6988C7.69798 13.7078 7.49522 13.4948 7.52929 13.303C7.52929 12.5563 7.52604 11.8104 7.52604 11.0637C7.52604 10.8558 7.60471 10.7567 7.80098 10.7039C7.98184 10.6544 8.16433 10.6949 8.27463 10.8191C8.31194 10.861 8.34843 10.9022 8.38493 10.944C8.79369 11.4042 9.19921 11.867 9.60716 12.3272C9.61932 12.3227 9.6323 12.3182 9.64446 12.3143C9.64446 11.9294 9.64528 11.5445 9.64446 11.1603C9.61851 10.9247 9.68096 10.6821 10.024 10.6956C10.2471 10.6969 10.4401 10.8462 10.4409 11.027C10.4474 11.8084 10.436 12.5905 10.4433 13.3718C10.4474 13.5276 10.3241 13.6061 10.1789 13.6705C10.0346 13.7348 9.90075 13.6994 9.78396 13.6171C9.72557 13.5765 9.67285 13.5282 9.62743 13.4774C9.20326 13.0153 8.82127 12.5345 8.38168 12.0813C8.36141 12.0588 8.33951 12.0369 8.31761 12.0144C8.31275 12.0665 8.30707 12.0987 8.30545 12.1315ZM22.2942 23.0928C22.2942 23.4294 22.0371 23.7197 21.6697 23.8458C21.5569 23.8741 21.4393 23.889 21.3201 23.8883C20.2285 23.8799 19.1368 23.8851 18.0452 23.8851C15.2082 23.8844 12.3712 23.8812 9.53416 23.8877C9.15217 23.8883 8.8456 23.8053 8.60958 23.6379C8.60958 23.6379 8.60904 23.6375 8.60796 23.6366C8.44576 23.4918 8.34681 23.3013 8.34681 23.0928L8.35086 21.8505H17.9316C18.9503 21.8505 19.7751 21.1953 19.7751 20.3875V6.7185C20.2747 6.7185 20.7735 6.71786 21.2731 6.71657C21.6129 6.71593 21.9203 6.81634 22.153 6.98111C22.2723 7.11499 22.3428 7.27847 22.3428 7.45419L22.2942 23.0928Z" fill="white"/>
</svg>
