<svg width="12" height="12" viewBox="0 0 12 12" fill="none" xmlns="http://www.w3.org/2000/svg">
<path d="M12 6C12 9.31371 9.31371 12 6 12C2.68629 12 0 9.31371 0 6C0 2.68629 2.68629 0 6 0C9.31371 0 12 2.68629 12 6Z" fill="#0A1E42"/>
<path d="M3.76164 3.15C3.8109 3.15 3.86001 3.15 3.90926 3.15C4.06827 3.17707 4.17551 3.28239 4.28349 3.39111C4.79085 3.90157 5.30087 4.40922 5.80867 4.9191C5.84092 4.95149 5.85601 4.95253 5.88885 4.91954C6.39162 4.4144 6.89661 3.91178 7.39923 3.40649C7.50943 3.2957 7.61697 3.18476 7.77746 3.15C7.82317 3.15 7.86887 3.15 7.91443 3.15C7.9946 3.17219 8.0764 3.19245 8.1403 3.2494C8.24917 3.34643 8.3573 3.44554 8.44827 3.55914C8.60107 3.7501 8.57592 4.01088 8.39383 4.19326C7.85512 4.73272 7.3161 5.27173 6.77591 5.80971C6.74499 5.84062 6.74455 5.85497 6.77576 5.88604C7.30974 6.4178 7.84225 6.9509 8.37505 7.4837C8.39369 7.50233 8.41247 7.52097 8.42978 7.54079C8.57563 7.70779 8.58982 7.95333 8.45418 8.12788C8.36055 8.24843 8.25168 8.35789 8.13113 8.45137C7.9381 8.60122 7.68412 8.57311 7.50174 8.39102C6.96362 7.85349 6.42579 7.31581 5.88899 6.77694C5.85704 6.74485 5.84196 6.74307 5.80867 6.77635C5.27957 7.30797 4.74884 7.83781 4.21841 8.3681C4.19859 8.38792 4.17892 8.40818 4.15791 8.42667C3.99668 8.56926 3.74803 8.59737 3.58532 8.46247C3.41374 8.32002 3.22366 8.18438 3.15858 7.94949C3.15799 7.94742 3.15296 7.94653 3.15 7.94505C3.15 7.88529 3.15 7.82568 3.15 7.76592C3.1534 7.76252 3.15917 7.75941 3.15991 7.75557C3.18299 7.64256 3.24837 7.55647 3.32839 7.47674C3.85956 6.94749 4.38881 6.41647 4.92043 5.88766C4.95474 5.85364 4.95016 5.83855 4.91895 5.80749C4.40538 5.2957 3.89329 4.78227 3.37957 4.27033C3.28446 4.17566 3.18979 4.08233 3.15887 3.94476C3.15843 3.94269 3.15325 3.9418 3.1503 3.94032C3.1503 3.87716 3.1503 3.81386 3.1503 3.75069C3.17574 3.72481 3.17515 3.68813 3.18905 3.65721C3.24304 3.53799 3.53828 3.24289 3.65736 3.1889C3.69138 3.17352 3.73073 3.17337 3.76164 3.15Z" fill="white"/>
</svg>
