<svg width="28" height="28" viewBox="0 0 28 28" fill="none" xmlns="http://www.w3.org/2000/svg">
<circle cx="14" cy="14" r="14" fill="#0A1E42"/>
<path d="M15.3692 14.5539L18.8503 11.0727C19.0769 10.8463 19.0769 10.4801 18.8503 10.2537C18.6239 10.0273 18.2578 10.0273 18.0313 10.2537L14.5501 13.7349L11.069 10.2537C10.8424 10.0273 10.4764 10.0273 10.25 10.2537C10.0234 10.4801 10.0234 10.8463 10.25 11.0727L13.7311 14.5539L10.25 18.0351C10.0234 18.2616 10.0234 18.6277 10.25 18.8541C10.3628 18.9671 10.5112 19.0238 10.6595 19.0238C10.8078 19.0238 10.956 18.9671 11.069 18.8541L14.5501 15.3729L18.0313 18.8541C18.1443 18.9671 18.2926 19.0238 18.4408 19.0238C18.5891 19.0238 18.7374 18.9671 18.8503 18.8541C19.0769 18.6277 19.0769 18.2616 18.8503 18.0351L15.3692 14.5539Z" fill="white"/>
</svg>
