<svg width="20" height="20" viewBox="0 0 20 20" fill="none" xmlns="http://www.w3.org/2000/svg">
<path d="M20 10C20 15.5228 15.5228 20 10 20C4.47715 20 0 15.5228 0 10C0 4.47715 4.47715 0 10 0C15.5228 0 20 4.47715 20 10Z" fill="#FFD9D9"/>
<path d="M6.2694 5.25C6.35149 5.25 6.43334 5.25 6.51544 5.25C6.78046 5.29511 6.95919 5.47064 7.13916 5.65184C7.98475 6.50262 8.83479 7.34871 9.68112 8.19849C9.73487 8.25249 9.76001 8.25421 9.81474 8.19923C10.6527 7.35734 11.4943 6.51963 12.3321 5.67748C12.5157 5.49283 12.6949 5.30793 12.9624 5.25C13.0386 5.25 13.1148 5.25 13.1907 5.25C13.3243 5.28698 13.4607 5.32075 13.5672 5.41567C13.7486 5.57739 13.9288 5.74257 14.0804 5.9319C14.3351 6.25017 14.2932 6.6848 13.9897 6.98877C13.0919 7.88787 12.1935 8.78622 11.2932 9.68285C11.2417 9.73438 11.2409 9.75829 11.2929 9.81006C12.1829 10.6963 13.0704 11.5848 13.9584 12.4728C13.9895 12.5039 14.0208 12.535 14.0496 12.568C14.2927 12.8463 14.3164 13.2556 14.0903 13.5465C13.9343 13.7474 13.7528 13.9298 13.5519 14.0856C13.2302 14.3354 12.8069 14.2885 12.5029 13.985C11.606 13.0892 10.7096 12.193 9.81499 11.2949C9.76174 11.2414 9.73659 11.2385 9.68112 11.2939C8.79929 12.1799 7.91474 13.063 7.03068 13.9468C6.99765 13.9799 6.96486 14.0136 6.92985 14.0445C6.66114 14.2821 6.24672 14.3289 5.97554 14.1041C5.68956 13.8667 5.37277 13.6406 5.2643 13.2491C5.26331 13.2457 5.25493 13.2442 5.25 13.2418C5.25 13.1422 5.25 13.0428 5.25 12.9432C5.25567 12.9375 5.26528 12.9324 5.26652 12.9259C5.30498 12.7376 5.41394 12.5941 5.54731 12.4612C6.4326 11.5792 7.31469 10.6941 8.20071 9.81277C8.25791 9.75607 8.25027 9.73092 8.19825 9.67915C7.3423 8.82616 6.48881 7.97046 5.63261 7.11722C5.4741 6.95944 5.31632 6.80388 5.26479 6.5746C5.26405 6.57115 5.25542 6.56967 5.25049 6.56721C5.25049 6.46194 5.25049 6.35643 5.25049 6.25116C5.2929 6.20801 5.29191 6.14687 5.31508 6.09535C5.40507 5.89665 5.89714 5.40482 6.0956 5.31484C6.1523 5.2892 6.21788 5.28895 6.2694 5.25Z" fill="url(#paint0_linear_583_5135)"/>
<defs>
<linearGradient id="paint0_linear_583_5135" x1="10" y1="0" x2="10" y2="20" gradientUnits="userSpaceOnUse">
<stop stop-color="#EA5D5D"/>
<stop offset="1" stop-color="#DD5A5A"/>
</linearGradient>
</defs>
</svg>
