<svg width="20" height="20" viewBox="0 0 20 20" fill="none" xmlns="http://www.w3.org/2000/svg">
<path d="M10.0083 18.75C5.22434 18.7427 1.17462 14.8548 1.25106 9.82863C1.84139 -1.68918 18.4275 -1.61926 18.75 10.1005C18.6931 14.8749 14.8219 18.7232 10.0078 18.75H10.0083ZM13.2127 11.9345C13.2189 11.9345 13.225 11.9345 13.2312 11.934C13.2094 11.7332 13.2005 11.5301 13.1636 11.3321C12.9723 10.1855 11.9121 9.41863 10.8302 9.20385C10.4547 9.12219 10.0703 9.08024 9.69086 9.01703C9.3996 8.96837 9.12732 8.86769 8.874 8.71275C8.49291 8.48007 8.33221 8.12433 8.33054 7.697C8.30599 6.94638 9.08156 6.60015 9.73159 6.56323C10.4307 6.51905 11.0367 6.62196 11.5082 7.18689C11.6967 7.38545 11.9188 7.64275 12.2235 7.5857C12.7044 7.50236 13.1095 7.00119 12.8489 6.52576C12.4076 5.80646 11.7074 5.29858 10.8682 5.16434C10.8163 5.15539 10.7973 5.13637 10.7979 5.0838C10.7934 4.86006 10.8213 4.6285 10.77 4.40924C10.6422 3.98415 10.2315 3.75482 9.79576 3.85102C9.49278 3.91758 9.17809 4.25095 9.19929 4.61507C9.2071 4.75435 9.20264 4.89474 9.20152 5.03457C9.20041 5.15875 9.19706 5.15203 9.07933 5.18336C8.88237 5.23593 8.68541 5.29075 8.49347 5.35955C7.68665 5.64537 6.94399 6.31209 6.80339 7.18801C6.766 7.42293 6.76823 7.66568 6.76823 7.90508C6.7833 8.74408 7.32006 9.47848 8.01808 9.90134C8.54312 10.2269 9.12062 10.3975 9.72824 10.4719C10.0519 10.5116 10.3677 10.5737 10.6773 10.6788C11.5109 10.9467 11.9914 12.1051 11.2878 12.7752C10.9251 13.1237 10.472 13.2406 9.9916 13.2831C9.75614 13.3038 9.52514 13.2545 9.29303 13.216C8.87958 13.1472 8.50239 13.0023 8.17208 12.7377C8.03649 12.6292 7.89867 12.5196 7.74802 12.434C7.4417 12.2595 7.08293 12.3389 6.85695 12.6108C6.64158 12.8692 6.63042 13.3082 6.83519 13.5432C6.9161 13.636 6.99644 13.7311 7.08851 13.8128C7.65707 14.3044 8.3735 14.6165 9.11727 14.7083C9.18144 14.7166 9.20152 14.7435 9.20041 14.8078C9.19706 14.9779 9.1965 15.1479 9.2032 15.3179C9.24616 15.7341 9.60884 16.0417 10.0708 16.0109C10.4369 15.9863 10.7599 15.6781 10.7873 15.3123C10.8007 15.1339 10.7945 14.9538 10.7928 14.7743C10.7928 14.7206 10.8079 14.6965 10.862 14.6831C12.1861 14.3967 13.2819 13.3636 13.2122 11.9373L13.2127 11.9345Z" fill="#2152CB"/>
</svg>
