<svg width="14" height="14" viewBox="0 0 14 14" fill="none" xmlns="http://www.w3.org/2000/svg">
<path d="M11.5886 3.60857C10.755 2.96284 9.79669 2.57298 8.7937 2.27103C8.88018 2.12217 8.99501 2.09311 9.14386 2.10304C10.2298 2.20036 11.2704 2.58441 12.1592 3.21589C12.2255 3.26278 12.2801 3.3244 12.3187 3.39593C13.1388 4.91638 13.6743 6.57388 13.8986 8.2868C13.9568 8.74753 13.9745 9.21394 14 9.67751C13.9967 9.75575 13.9649 9.8301 13.9107 9.88661C12.9765 10.879 11.8069 11.3411 10.4658 11.4233C10.4061 11.4327 10.345 11.4253 10.2893 11.4019C10.2336 11.3785 10.1855 11.34 10.1504 11.2908C9.94625 11.0264 9.72509 10.7733 9.50111 10.5005C10.3099 10.2502 11.0187 9.89653 11.5567 9.2671C8.51962 10.9683 5.49083 10.9683 2.4703 9.2671C2.52134 9.42233 2.90552 9.77249 3.35704 10.0114C3.71145 10.1992 4.08854 10.3509 4.47768 10.5281C4.24448 10.8074 4.00207 11.1022 3.75185 11.3886C3.72279 11.4219 3.6434 11.4219 3.58882 11.4191C2.213 11.3532 1.01934 10.874 0.0652671 9.85968C0.0217205 9.80334 -0.00128573 9.73382 5.54926e-05 9.66262C0.0237964 8.3655 0.242186 7.0793 0.647919 5.84703C0.905384 5.02099 1.24099 4.22137 1.65019 3.45901C1.71153 3.34646 1.79786 3.24946 1.90253 3.17548C2.77688 2.56635 3.79541 2.19662 4.8569 2.10304C5.00717 2.08957 5.122 2.11863 5.21132 2.26961C4.20479 2.57157 3.24717 2.96284 2.41005 3.61283C5.46838 2.22212 8.52789 2.2207 11.5886 3.60857ZM9.15591 8.68799C9.31825 8.68717 9.47882 8.65417 9.62832 8.59092C9.77783 8.52766 9.91332 8.43539 10.027 8.31945C10.1406 8.20351 10.2301 8.0662 10.2904 7.91544C10.3506 7.76469 10.3804 7.6035 10.3779 7.44117C10.3779 6.76496 9.83 6.19577 9.18568 6.19932C8.85473 6.19837 8.53689 6.3286 8.30175 6.56148C8.0666 6.79437 7.93331 7.11094 7.93107 7.44188C7.92966 7.60413 7.96023 7.76506 8.02103 7.9155C8.08183 8.06593 8.17166 8.20291 8.2854 8.31863C8.39914 8.43434 8.53455 8.52652 8.68392 8.58989C8.83328 8.65327 8.99366 8.6866 9.15591 8.68799ZM4.84769 8.68799C5.17241 8.68464 5.48275 8.55358 5.71158 8.32316C5.9404 8.09275 6.06931 7.7815 6.07041 7.45677C6.07125 7.2914 6.03931 7.12751 5.97641 6.97457C5.91352 6.82162 5.82093 6.68267 5.70399 6.56573C5.58706 6.4488 5.4481 6.35621 5.29516 6.29331C5.14222 6.23042 4.97832 6.19847 4.81296 6.19932C4.17076 6.19932 3.62284 6.76638 3.62355 7.4433C3.62159 7.60561 3.65175 7.7667 3.71231 7.9173C3.77287 8.0679 3.86263 8.20502 3.97641 8.32078C4.0902 8.43654 4.22576 8.52865 4.37529 8.59179C4.52483 8.65494 4.68537 8.68787 4.84769 8.6887V8.68799Z" fill="white"/>
</svg>
