<svg width="12" height="14" viewBox="0 0 12 14" fill="none" xmlns="http://www.w3.org/2000/svg">
<path d="M0.0101788 6.19702H11.9998C11.9998 6.27923 11.9998 6.35162 11.9998 6.42442C11.9998 8.19006 12.0002 9.9557 11.9998 11.7213C11.9994 12.8534 11.2537 13.5929 10.1126 13.5929C7.36676 13.5929 4.62046 13.5933 1.87458 13.5929C0.757927 13.5929 0.00148409 12.8494 0.000656022 11.7496C-0.000586084 9.97043 0.000241987 8.19088 0.000656022 6.41174C0.000656022 6.34508 0.00645252 6.27841 0.0097648 6.19702H0.0101788Z" fill="#002464"/>
<path d="M0.0101788 6.19702H11.9998C11.9998 6.27923 11.9998 6.35162 11.9998 6.42442C11.9998 8.19006 12.0002 9.9557 11.9998 11.7213C11.9994 12.8534 11.2537 13.5929 10.1126 13.5929C7.36676 13.5929 4.62046 13.5933 1.87458 13.5929C0.757927 13.5929 0.00148409 12.8494 0.000656022 11.7496C-0.000586084 9.97043 0.000241987 8.19088 0.000656022 6.41174C0.000656022 6.34508 0.00645252 6.27841 0.0097648 6.19702H0.0101788Z" fill="black" fill-opacity="0.2"/>
<path d="M9.95507 1.7669C10.9747 1.64101 11.8834 2.29612 11.9696 3.2633C12.0305 3.94856 11.9812 4.6436 11.9812 5.3476H0.0259994C0.0164697 5.33212 0.00321108 5.32112 0.00321108 5.30971C0.0102547 4.60408 -0.0237206 3.89519 0.0371864 3.19404C0.115495 2.2949 1.10699 1.61127 2.04504 1.77341C2.04504 1.84064 2.04504 1.91275 2.04504 1.98486C2.0467 2.47375 2.03303 2.96345 2.05374 3.45153C2.07985 4.0663 2.541 4.5393 3.15338 4.61508C3.73511 4.68719 4.30689 4.31564 4.48173 3.73712C4.524 3.59656 4.53353 3.44297 4.5356 3.29508C4.54223 2.86038 4.53808 2.42567 4.53808 1.99097C4.53808 1.91764 4.53808 1.8443 4.53808 1.75834H7.46162C7.46162 1.87608 7.46037 1.98852 7.46162 2.10097C7.467 2.58293 7.44629 3.06693 7.48606 3.54604C7.53744 4.16938 8.09554 4.62853 8.73072 4.61997C9.3605 4.61182 9.90411 4.12823 9.94015 3.50367C9.96916 3.00256 9.95176 2.49901 9.95466 1.99667C9.95507 1.92334 9.95466 1.85001 9.95466 1.76608L9.95507 1.7669Z" fill="#002464"/>
<path d="M9.95507 1.7669C10.9747 1.64101 11.8834 2.29612 11.9696 3.2633C12.0305 3.94856 11.9812 4.6436 11.9812 5.3476H0.0259994C0.0164697 5.33212 0.00321108 5.32112 0.00321108 5.30971C0.0102547 4.60408 -0.0237206 3.89519 0.0371864 3.19404C0.115495 2.2949 1.10699 1.61127 2.04504 1.77341C2.04504 1.84064 2.04504 1.91275 2.04504 1.98486C2.0467 2.47375 2.03303 2.96345 2.05374 3.45153C2.07985 4.0663 2.541 4.5393 3.15338 4.61508C3.73511 4.68719 4.30689 4.31564 4.48173 3.73712C4.524 3.59656 4.53353 3.44297 4.5356 3.29508C4.54223 2.86038 4.53808 2.42567 4.53808 1.99097C4.53808 1.91764 4.53808 1.8443 4.53808 1.75834H7.46162C7.46162 1.87608 7.46037 1.98852 7.46162 2.10097C7.467 2.58293 7.44629 3.06693 7.48606 3.54604C7.53744 4.16938 8.09554 4.62853 8.73072 4.61997C9.3605 4.61182 9.90411 4.12823 9.94015 3.50367C9.96916 3.00256 9.95176 2.49901 9.95466 1.99667C9.95507 1.92334 9.95466 1.85001 9.95466 1.76608L9.95507 1.7669Z" fill="black" fill-opacity="0.2"/>
<path d="M2.84876 2.17645C2.84876 1.77662 2.84634 1.37637 2.84957 0.976536C2.85199 0.687216 3.0067 0.505511 3.24461 0.50013C3.48818 0.494335 3.65743 0.682663 3.65864 0.979847C3.66227 1.77289 3.66187 2.56635 3.65864 3.35939C3.65743 3.6574 3.49141 3.84946 3.25148 3.84821C3.00952 3.84697 2.85118 3.65699 2.84916 3.35608C2.84634 2.96287 2.84836 2.56966 2.84836 2.17686L2.84876 2.17645Z" fill="#002464"/>
<path d="M2.84876 2.17645C2.84876 1.77662 2.84634 1.37637 2.84957 0.976536C2.85199 0.687216 3.0067 0.505511 3.24461 0.50013C3.48818 0.494335 3.65743 0.682663 3.65864 0.979847C3.66227 1.77289 3.66187 2.56635 3.65864 3.35939C3.65743 3.6574 3.49141 3.84946 3.25148 3.84821C3.00952 3.84697 2.85118 3.65699 2.84916 3.35608C2.84634 2.96287 2.84836 2.56966 2.84836 2.17686L2.84876 2.17645Z" fill="black" fill-opacity="0.2"/>
<path d="M9.10092 2.17685C9.10092 2.57006 9.10282 2.96328 9.10017 3.35607C9.09827 3.6574 8.95023 3.84655 8.72304 3.84821C8.49813 3.84987 8.34214 3.65699 8.341 3.35939C8.33835 2.56634 8.33797 1.77288 8.341 0.979831C8.34214 0.683059 8.50041 0.494732 8.72872 0.500112C8.95174 0.505493 9.09714 0.686785 9.09979 0.97652C9.1032 1.37635 9.10054 1.7766 9.10054 2.17644L9.10092 2.17685Z" fill="#002464"/>
<path d="M9.10092 2.17685C9.10092 2.57006 9.10282 2.96328 9.10017 3.35607C9.09827 3.6574 8.95023 3.84655 8.72304 3.84821C8.49813 3.84987 8.34214 3.65699 8.341 3.35939C8.33835 2.56634 8.33797 1.77288 8.341 0.979831C8.34214 0.683059 8.50041 0.494732 8.72872 0.500112C8.95174 0.505493 9.09714 0.686785 9.09979 0.97652C9.1032 1.37635 9.10054 1.7766 9.10054 2.17644L9.10092 2.17685Z" fill="black" fill-opacity="0.2"/>
</svg>
