<svg width="20" height="20" viewBox="0 0 20 20" fill="none" xmlns="http://www.w3.org/2000/svg">
<path d="M11.6406 1.25H3.25521C2.14688 1.25 1.25 2.14688 1.25 3.25521V14.5573C1.25 15.6657 2.14688 16.5625 3.25521 16.5625H8.63648L8.79689 15.6657C8.86981 15.2573 9.05939 14.8927 9.35106 14.5938L13.6459 10.3063V3.25521C13.6459 2.14688 12.749 1.25 11.6406 1.25ZM4.16667 4.16667H7.08335C7.48439 4.16667 7.81251 4.4948 7.81251 4.89584C7.81251 5.29688 7.48439 5.62501 7.08335 5.62501H4.16667C3.76563 5.62501 3.4375 5.29688 3.4375 4.89584C3.4375 4.4948 3.76563 4.16667 4.16667 4.16667ZM7.81251 11.4584H4.16667C3.76563 11.4584 3.4375 11.1302 3.4375 10.7292C3.4375 10.3281 3.76563 10 4.16667 10H7.81251C8.21356 10 8.54168 10.3281 8.54168 10.7292C8.54168 11.1302 8.21356 11.4584 7.81251 11.4584ZM10.7292 8.54168H4.16667C3.76563 8.54168 3.4375 8.21356 3.4375 7.81251C3.4375 7.41147 3.76563 7.08335 4.16667 7.08335H10.7292C11.1302 7.08335 11.4584 7.41147 11.4584 7.81251C11.4584 8.21356 11.1302 8.54168 10.7292 8.54168Z" fill="white"/>
<path d="M10.3845 18.7499C10.2408 18.7499 10.1008 18.6931 9.99802 18.5895C9.87188 18.4634 9.815 18.284 9.84636 18.1075L10.2328 15.9164C10.2518 15.8063 10.3057 15.7042 10.3845 15.6247L15.7986 10.2114C16.4636 9.54491 17.1169 9.72502 17.4742 10.0823L18.3762 10.9843C18.8742 11.4816 18.8742 12.291 18.3762 12.789L12.9621 18.2031C12.8833 18.2825 12.7813 18.3358 12.6704 18.3547L10.4793 18.7412C10.4479 18.747 10.4158 18.7499 10.3845 18.7499Z" fill="white"/>
</svg>
