<svg width="20" height="20" viewBox="0 0 20 20" fill="none" xmlns="http://www.w3.org/2000/svg">
<path d="M7.83611 9.5194C8.01976 9.71925 8.12058 9.98031 8.12058 10.2504V18.2083C8.12058 18.6872 8.69852 18.9303 9.0406 18.5936L11.2605 16.0496C11.5576 15.6931 11.7215 15.5166 11.7215 15.1638V10.2522C11.7215 9.98211 11.8241 9.72105 12.0059 9.52118L18.3758 2.60933C18.853 2.0908 18.4857 1.25 17.7799 1.25H2.06209C1.35632 1.25 0.987234 2.089 1.46615 2.60933L7.83611 9.5194Z" fill="#002464"/>
<path d="M7.83611 9.5194C8.01976 9.71925 8.12058 9.98031 8.12058 10.2504V18.2083C8.12058 18.6872 8.69852 18.9303 9.0406 18.5936L11.2605 16.0496C11.5576 15.6931 11.7215 15.5166 11.7215 15.1638V10.2522C11.7215 9.98211 11.8241 9.72105 12.0059 9.52118L18.3758 2.60933C18.853 2.0908 18.4857 1.25 17.7799 1.25H2.06209C1.35632 1.25 0.987234 2.089 1.46615 2.60933L7.83611 9.5194Z" fill="black" fill-opacity="0.2"/>
</svg>
