<svg width="60" height="60" viewBox="0 0 60 60" fill="none" xmlns="http://www.w3.org/2000/svg">
<path d="M60 30C60 46.5685 46.5685 60 30 60C13.4315 60 0 46.5685 0 30C0 13.4315 13.4315 0 30 0C46.5685 0 60 13.4315 60 30Z" fill="#BFF7C1"/>
<path d="M44.5662 18.0459L43.7228 17.3213C42.3227 16.1181 40.2188 16.2522 38.9827 17.6229L24.8728 33.2681L20.6137 29.5998C19.2151 28.3953 17.1109 28.5268 15.8733 29.896L15.1275 30.7212C14.5228 31.39 14.2088 32.2723 14.2544 33.1735C14.3004 34.0741 14.7022 34.9197 15.3721 35.5242L23.1793 42.6736C23.8552 43.3084 24.7611 43.6394 25.687 43.5903C26.613 43.5413 27.4786 43.1159 28.0835 42.413L44.9272 22.8419C45.5156 22.1581 45.8082 21.2686 45.7404 20.3693C45.6726 19.4693 45.2504 18.6337 44.5662 18.0459Z" fill="#30A666"/>
</svg>
