<svg width="100" height="100" viewBox="0 0 100 100" fill="none" xmlns="http://www.w3.org/2000/svg">
<path d="M33.3712 42.5036C35.4984 40.5046 37.7443 38.6871 40.3167 37.2522C43.5552 35.4478 47.0345 34.5572 50.6754 34.3164C59.1181 33.7589 66.202 36.7673 72.102 42.7378C74.6579 45.6703 76.5146 49.0052 77.8371 52.6502C77.8536 52.8118 77.8437 52.9834 77.8865 53.1384C79.7565 59.8149 79.176 66.2637 76.076 72.4684C75.7891 73.0424 75.9639 73.3755 76.353 73.745C77.1016 74.4575 77.8041 75.203 77.9096 76.3113C77.4611 77.291 77.8865 77.931 78.6055 78.6369C82.563 82.5293 86.4974 86.448 90.3824 90.4163C93.5088 93.6061 92.1533 98.7289 87.9122 99.8042C85.8081 100.339 83.9481 99.7712 82.3882 98.2044C78.4769 94.2658 74.5359 90.3536 70.6245 86.4118C70.0705 85.8543 69.6055 85.5376 68.7117 85.752C67.63 86.0126 66.7297 85.343 66.0602 84.5084C65.4897 83.7959 64.9455 83.8091 64.1507 84.1918C53.3731 89.3838 40.6629 86.8274 32.7842 77.9178C32.3225 77.3966 31.9037 76.8391 31.4683 76.2981C27.5867 70.8026 25.885 64.6968 26.35 57.9841C26.7721 55.9093 26.9667 53.7717 27.7219 51.786C29.0246 48.3521 30.9374 45.2646 33.3712 42.5036ZM73.6982 60.534C73.6982 49.4077 64.6751 39.2149 51.9682 39.5183C41.1807 39.7723 31.6003 48.4148 31.5904 60.5175C31.5805 72.4123 40.8641 81.5199 52.641 81.6188C64.4409 81.7178 73.8136 71.5778 73.6982 60.534Z" fill="#2152CB"/>
<path d="M97.3144 23.6984C96.4569 23.6654 95.5928 23.6819 94.7354 23.6753C67.2967 23.6786 39.858 23.6852 12.4161 23.6885C10.035 23.6885 7.65057 23.6786 5.26947 23.6753C4.40871 23.6819 3.54796 23.6654 2.6905 23.6984C0.823877 23.771 -0.264435 25.1729 0.0554626 27.0135C0.358871 28.742 0.606215 30.4771 0.89973 32.2089C1.47687 35.6263 2.06719 39.037 2.65092 42.4511C2.97412 44.5095 3.27423 46.5711 3.62381 48.6229C4.15807 51.7566 4.72531 54.8804 5.27936 58.0108C5.30905 58.5023 5.28926 59.0037 5.37171 59.4853C6.1731 64.2122 6.99098 68.9392 7.79897 73.6661C8.12217 75.5563 8.96314 76.3083 10.8759 76.3083C17.7389 76.3149 24.6052 76.3051 31.4681 76.3018C27.5865 70.8062 25.8848 64.7004 26.3498 57.9877C26.7719 55.9129 26.9665 53.7754 27.7217 51.7896C29.0277 48.3524 30.9372 45.2616 33.371 42.5039C35.4982 40.5049 37.7441 38.6874 40.3164 37.2525C43.555 35.4481 47.0343 34.5575 50.6752 34.3167C59.1179 33.7592 66.2018 36.7676 72.1018 42.7381C72.2139 42.6721 72.3293 42.6194 72.4481 42.5798C72.3293 42.6194 72.2139 42.6688 72.1018 42.7381C74.6577 45.6706 76.5144 49.0055 77.8369 52.6505C77.8533 52.8155 77.8434 52.9837 77.8863 53.1387C79.7562 59.8152 79.1758 66.264 76.0758 72.4687C75.7888 73.0427 75.9636 73.3759 76.3528 73.7453C77.1014 74.4578 77.8039 75.2033 77.9094 76.3116C81.6492 76.3116 85.3891 76.3182 89.1289 76.305C91.0417 76.2985 91.8959 75.553 92.2026 73.6562C93.3568 66.5411 94.5045 59.4292 95.6555 52.3141C95.7281 52.1293 95.8402 51.9512 95.8732 51.7599C96.3646 48.7383 96.8461 45.7168 97.3308 42.6952C98.2015 37.4669 99.059 32.2386 99.9461 27.0135C100.259 25.1729 99.1843 23.771 97.3144 23.6984ZM72.8108 42.4907C72.857 42.4841 72.9032 42.4742 72.9493 42.4709C72.9032 42.4775 72.857 42.4841 72.8108 42.4907Z" fill="#8CC0FF"/>
<path d="M73.6972 60.5344C73.8093 71.5783 64.4366 81.7183 52.64 81.6193C40.8631 81.5204 31.5795 72.4095 31.5894 60.5179C31.5993 48.4152 41.183 39.7761 51.9672 39.5188C64.6741 39.2153 73.6972 49.4081 73.6972 60.5344Z" fill="white"/>
<path d="M53.2822 49.1733C55.5374 49.1733 57.3598 49.8071 58.7493 51.0746C60.1389 52.342 60.8337 54.0395 60.8337 56.1671C60.8337 58.5436 60.0933 60.309 58.6127 61.4633C57.132 62.595 55.1274 63.1609 52.5988 63.1609L52.4963 66.3861H49.7969L49.6602 61.022H50.6512C52.9063 61.022 54.6718 60.6825 55.9474 60.0035C57.2231 59.3245 57.8609 58.0457 57.8609 56.1671C57.8609 54.8091 57.4509 53.734 56.6308 52.9418C55.8108 52.1496 54.7059 51.7536 53.3164 51.7536C51.904 51.7536 50.7878 52.1383 49.9678 52.9079C49.1705 53.6548 48.7718 54.6846 48.7718 55.9973H45.8333C45.8333 54.6393 46.1408 53.4511 46.7558 52.4326C47.3709 51.3914 48.2365 50.5879 49.3527 50.0221C50.4917 49.4563 51.8015 49.1733 53.2822 49.1733ZM51.1295 73.3459C50.5373 73.3459 50.0361 73.1422 49.6261 72.7348C49.216 72.3274 49.011 71.8295 49.011 71.241C49.011 70.6526 49.216 70.1546 49.6261 69.7472C50.0361 69.3398 50.5373 69.1361 51.1295 69.1361C51.699 69.1361 52.1774 69.3398 52.5646 69.7472C52.9747 70.1546 53.1797 70.6526 53.1797 71.241C53.1797 71.8295 52.9747 72.3274 52.5646 72.7348C52.1774 73.1422 51.699 73.3459 51.1295 73.3459Z" fill="#2152CB"/>
<path d="M94.6391 12.5885C92.8846 12.5885 91.1334 12.5885 89.3789 12.5885C91.1334 12.5852 92.8846 12.5885 94.6391 12.5885C94.4907 10.0221 92.258 7.93741 89.5702 7.90442C89.5075 7.90442 89.4416 7.90442 89.3789 7.90442V7.87473H54.6815C54.3451 7.86813 54.0087 7.86484 53.6756 7.87473H49.2894C47.1425 7.57785 45.1703 6.72681 43.462 4.99832C43.3828 4.91585 43.2443 4.89276 43.1322 4.83999C41.4239 3.30282 39.5441 1.98666 37.6511 0.696898C36.9816 0.241686 36.1604 0.0140797 35.3194 0.0140797C26.9493 0.00748247 18.5792 -0.0189066 10.2091 0.0239757C7.50149 0.0305729 5.30837 2.45507 5.34465 5.17975C5.34465 7.89452 5.34135 10.6093 5.34135 13.3241C5.31827 16.7745 5.29188 20.2248 5.2688 23.6785C7.6499 23.6818 10.0343 23.6917 12.4154 23.6917C39.8541 23.6884 67.2927 23.6818 94.7347 23.6785C94.7017 19.9807 94.6721 16.283 94.6391 12.5885Z" fill="#3F66C7"/>
</svg>
