<svg width="12" height="12" viewBox="0 0 12 12" fill="none" xmlns="http://www.w3.org/2000/svg">
<g clip-path="url(#clip0_599_30706)">
<path d="M6.31078 11.25C6.10549 11.25 5.90046 11.25 5.69517 11.25C5.62451 11.2418 5.55386 11.2328 5.4832 11.2251C4.61811 11.1326 3.81751 10.8546 3.09939 10.3631C1.86714 9.51982 1.102 8.36542 0.830934 6.89243C0.79522 6.69845 0.776464 6.50112 0.75 6.3056C0.75 6.10031 0.75 5.89528 0.75 5.68999C0.772096 5.51425 0.788283 5.33748 0.817573 5.16302C1.00205 4.06952 1.47506 3.11733 2.25768 2.33266C3.43545 1.15257 4.86502 0.625089 6.52763 0.77488C7.55433 0.867376 8.47954 1.24635 9.27321 1.90358C10.7182 3.10012 11.3803 4.64351 11.2272 6.51706C11.1565 7.38394 10.8605 8.18274 10.369 8.90087C9.52577 10.1329 8.37112 10.8977 6.89761 11.1688C6.70363 11.2048 6.50656 11.2233 6.31078 11.25ZM6.61859 6.92095C6.61859 6.84233 6.61859 6.76371 6.61859 6.68509C6.61859 6.25781 6.62192 5.83028 6.61756 5.403C6.61319 4.95208 6.20724 4.66175 5.79229 4.80717C5.54153 4.89504 5.38814 5.12602 5.38762 5.42355C5.3866 6.08695 5.38737 6.75009 5.38737 7.41349C5.38737 7.75547 5.38531 8.09744 5.38814 8.43916C5.39045 8.72025 5.54872 8.94969 5.79229 9.03499C6.20749 9.18041 6.6137 8.89008 6.61756 8.43916C6.62192 7.93301 6.61859 7.42711 6.61859 6.92095ZM6.61781 3.53305C6.61602 3.19775 6.33467 2.91923 6.00041 2.92103C5.66511 2.92283 5.38634 3.20417 5.38839 3.53844C5.39019 3.87374 5.67153 4.15225 6.0058 4.15045C6.3411 4.14866 6.61961 3.86757 6.61781 3.53305Z" fill="white"/>
</g>
<defs>
<clipPath id="clip0_599_30706">
<rect width="12" height="12" fill="white"/>
</clipPath>
</defs>
</svg>
