<svg width="16" height="16" viewBox="0 0 16 16" fill="none" xmlns="http://www.w3.org/2000/svg">
<path d="M8.41437 15C8.14066 15 7.86728 15 7.59356 15C7.49935 14.989 7.40514 14.977 7.31094 14.9668C6.15748 14.8434 5.09002 14.4728 4.13252 13.8174C2.48952 12.6931 1.46933 11.1539 1.10791 9.18991C1.06029 8.93127 1.03529 8.66817 1 8.40747C1 8.13375 1 7.86037 1 7.58665C1.02946 7.35233 1.05104 7.11664 1.0901 6.88403C1.33607 5.42603 1.96675 4.15644 3.01024 3.11021C4.58061 1.53676 6.4867 0.833452 8.70351 1.03317C10.0724 1.1565 11.3061 1.6618 12.3643 2.53811C14.2909 4.13349 15.1737 6.19134 14.9696 8.68941C14.8754 9.84526 14.4807 10.9103 13.8254 11.8678C12.701 13.5105 11.1615 14.5303 9.19682 14.8917C8.93817 14.9397 8.67542 14.9644 8.41437 15ZM8.82478 9.22794C8.82478 9.12311 8.82478 9.01828 8.82478 8.91345C8.82478 8.34375 8.82923 7.7737 8.82341 7.204C8.81759 6.60278 8.27632 6.21566 7.72305 6.40956C7.3887 6.52672 7.18418 6.8347 7.1835 7.2314C7.18213 8.11593 7.18316 9.00012 7.18316 9.88465C7.18316 10.3406 7.18041 10.7966 7.18418 11.2522C7.18727 11.627 7.39829 11.9329 7.72305 12.0467C8.27666 12.2405 8.81827 11.8534 8.82341 11.2522C8.82923 10.5773 8.82478 9.90281 8.82478 9.22794ZM8.82375 4.71073C8.82135 4.26367 8.44623 3.89231 8.00054 3.89471C7.55348 3.89711 7.18179 4.27223 7.18453 4.71792C7.18692 5.16498 7.56204 5.53634 8.00774 5.53394C8.4548 5.53154 8.82615 5.15676 8.82375 4.71073Z" fill="#002464"/>
<path d="M8.41437 15C8.14066 15 7.86728 15 7.59356 15C7.49935 14.989 7.40514 14.977 7.31094 14.9668C6.15748 14.8434 5.09002 14.4728 4.13252 13.8174C2.48952 12.6931 1.46933 11.1539 1.10791 9.18991C1.06029 8.93127 1.03529 8.66817 1 8.40747C1 8.13375 1 7.86037 1 7.58665C1.02946 7.35233 1.05104 7.11664 1.0901 6.88403C1.33607 5.42603 1.96675 4.15644 3.01024 3.11021C4.58061 1.53676 6.4867 0.833452 8.70351 1.03317C10.0724 1.1565 11.3061 1.6618 12.3643 2.53811C14.2909 4.13349 15.1737 6.19134 14.9696 8.68941C14.8754 9.84526 14.4807 10.9103 13.8254 11.8678C12.701 13.5105 11.1615 14.5303 9.19682 14.8917C8.93817 14.9397 8.67542 14.9644 8.41437 15ZM8.82478 9.22794C8.82478 9.12311 8.82478 9.01828 8.82478 8.91345C8.82478 8.34375 8.82923 7.7737 8.82341 7.204C8.81759 6.60278 8.27632 6.21566 7.72305 6.40956C7.3887 6.52672 7.18418 6.8347 7.1835 7.2314C7.18213 8.11593 7.18316 9.00012 7.18316 9.88465C7.18316 10.3406 7.18041 10.7966 7.18418 11.2522C7.18727 11.627 7.39829 11.9329 7.72305 12.0467C8.27666 12.2405 8.81827 11.8534 8.82341 11.2522C8.82923 10.5773 8.82478 9.90281 8.82478 9.22794ZM8.82375 4.71073C8.82135 4.26367 8.44623 3.89231 8.00054 3.89471C7.55348 3.89711 7.18179 4.27223 7.18453 4.71792C7.18692 5.16498 7.56204 5.53634 8.00774 5.53394C8.4548 5.53154 8.82615 5.15676 8.82375 4.71073Z" fill="black" fill-opacity="0.2"/>
</svg>
