<svg width="28" height="28" viewBox="0 0 28 28" fill="none" xmlns="http://www.w3.org/2000/svg">
<path d="M2.40039 25.6666C1.84811 25.6666 1.40039 25.2189 1.40039 24.6666V11.111C1.40039 10.5587 1.84811 10.111 2.40039 10.111H7.33039C7.88267 10.111 8.33039 10.5587 8.33039 11.111V24.6666C8.33039 25.2189 7.88268 25.6666 7.33039 25.6666H2.40039ZM11.5354 25.6666C10.9831 25.6666 10.5354 25.2189 10.5354 24.6666V3.33325C10.5354 2.78097 10.9831 2.33325 11.5354 2.33325H16.4654C17.0177 2.33325 17.4654 2.78097 17.4654 3.33325V24.6666C17.4654 25.2189 17.0177 25.6666 16.4654 25.6666H11.5354ZM20.6704 25.6666C20.1181 25.6666 19.6704 25.2189 19.6704 24.6666V13.7036C19.6704 13.1513 20.1181 12.7036 20.6704 12.7036H25.6004C26.1527 12.7036 26.6004 13.1513 26.6004 13.7036V24.6666C26.6004 25.2189 26.1527 25.6666 25.6004 25.6666H20.6704Z" fill="white"/>
</svg>
