<svg width="20" height="20" viewBox="0 0 20 20" fill="none" xmlns="http://www.w3.org/2000/svg">
<path d="M11.7288 8.27843C11.7476 7.87248 11.489 7.55779 11.0777 7.51723C8.89619 7.52122 6.70459 7.48826 4.52313 7.53063C3.89194 7.63891 3.76954 8.54676 4.3417 8.8361C4.42499 8.88246 4.52856 8.91107 4.6238 8.91288C6.5945 8.93207 8.56485 8.89984 10.5352 8.92555C9.84968 9.40537 9.27896 9.99347 8.8187 10.7022C8.71223 10.4755 8.4783 10.3328 8.23458 10.3292C7.04173 10.3277 5.84888 10.3274 4.65603 10.3292C4.30042 10.3295 4.0042 10.6109 3.97668 10.9658C3.9401 11.4547 4.32142 11.7712 4.77879 11.744C5.94376 11.744 7.108 11.7415 8.27297 11.7404C7.66459 13.3978 7.70407 15.0386 8.4276 16.6675C6.89 16.6671 5.35313 16.6798 3.81553 16.6628C2.98589 16.6537 2.38367 16.2467 2.02697 15.4949C1.91073 15.2501 1.86293 14.984 1.86293 14.7131C1.86184 11.0766 1.85533 7.44082 1.868 3.80469C1.83468 2.7288 2.79903 1.8539 3.86152 1.87635C6.53113 1.87635 9.20111 1.87201 11.8707 1.87889C12.6033 1.8807 13.1733 2.20734 13.5604 2.83274C13.7647 3.163 13.8382 3.53237 13.8382 3.91767C13.8382 5.16774 13.8382 6.41781 13.8382 7.66824C13.8353 7.83844 13.8693 7.8819 13.6723 7.88262C13.2939 7.9 12.9173 7.93621 12.5504 8.03435C12.2756 8.10786 12.0043 8.19622 11.7284 8.27915L11.7288 8.27843ZM6.08716 6.1024C6.56264 6.1024 7.03775 6.10384 7.51322 6.10203C7.7975 6.10095 8.05678 5.92169 8.15492 5.66494C8.25993 5.38936 8.19004 5.0754 7.98472 4.88021C7.81777 4.7216 7.611 4.68285 7.39336 4.68213C6.5286 4.68973 5.6642 4.68756 4.79943 4.68104C4.27507 4.64591 3.85971 5.0649 4.00058 5.59976C4.06612 5.84999 4.32577 6.10783 4.68753 6.10348C5.15396 6.09805 5.62074 6.10203 6.08716 6.10203V6.1024Z" fill="#002464"/>
<path d="M11.7288 8.27843C11.7476 7.87248 11.489 7.55779 11.0777 7.51723C8.89619 7.52122 6.70459 7.48826 4.52313 7.53063C3.89194 7.63891 3.76954 8.54676 4.3417 8.8361C4.42499 8.88246 4.52856 8.91107 4.6238 8.91288C6.5945 8.93207 8.56485 8.89984 10.5352 8.92555C9.84968 9.40537 9.27896 9.99347 8.8187 10.7022C8.71223 10.4755 8.4783 10.3328 8.23458 10.3292C7.04173 10.3277 5.84888 10.3274 4.65603 10.3292C4.30042 10.3295 4.0042 10.6109 3.97668 10.9658C3.9401 11.4547 4.32142 11.7712 4.77879 11.744C5.94376 11.744 7.108 11.7415 8.27297 11.7404C7.66459 13.3978 7.70407 15.0386 8.4276 16.6675C6.89 16.6671 5.35313 16.6798 3.81553 16.6628C2.98589 16.6537 2.38367 16.2467 2.02697 15.4949C1.91073 15.2501 1.86293 14.984 1.86293 14.7131C1.86184 11.0766 1.85533 7.44082 1.868 3.80469C1.83468 2.7288 2.79903 1.8539 3.86152 1.87635C6.53113 1.87635 9.20111 1.87201 11.8707 1.87889C12.6033 1.8807 13.1733 2.20734 13.5604 2.83274C13.7647 3.163 13.8382 3.53237 13.8382 3.91767C13.8382 5.16774 13.8382 6.41781 13.8382 7.66824C13.8353 7.83844 13.8693 7.8819 13.6723 7.88262C13.2939 7.9 12.9173 7.93621 12.5504 8.03435C12.2756 8.10786 12.0043 8.19622 11.7284 8.27915L11.7288 8.27843ZM6.08716 6.1024C6.56264 6.1024 7.03775 6.10384 7.51322 6.10203C7.7975 6.10095 8.05678 5.92169 8.15492 5.66494C8.25993 5.38936 8.19004 5.0754 7.98472 4.88021C7.81777 4.7216 7.611 4.68285 7.39336 4.68213C6.5286 4.68973 5.6642 4.68756 4.79943 4.68104C4.27507 4.64591 3.85971 5.0649 4.00058 5.59976C4.06612 5.84999 4.32577 6.10783 4.68753 6.10348C5.15396 6.09805 5.62074 6.10203 6.08716 6.10203V6.1024Z" fill="black" fill-opacity="0.2"/>
<path d="M14.0815 9.27165C16.6845 9.32706 18.829 11.4513 18.7602 14.1542C18.3977 20.3839 9.33288 20.2688 9.2648 13.8776C9.34157 11.2927 11.4636 9.2597 14.0815 9.27129V9.27165ZM12.6322 13.3239C12.432 13.3242 12.2317 13.3188 12.0315 13.3257C11.4253 13.3264 11.1457 14.1115 11.5705 14.5247C11.728 14.6905 11.9283 14.734 12.1477 14.7311C12.5106 14.7268 12.8738 14.7293 13.237 14.7264C13.2953 14.726 13.312 14.7456 13.3116 14.8028C13.3083 15.1747 13.3083 15.5466 13.3076 15.9185C13.3076 16.0471 13.3185 16.1745 13.3808 16.2901C13.6954 16.9028 14.7011 16.7511 14.7138 15.9714C14.7098 15.5865 14.7134 15.2011 14.713 14.8162C14.713 14.7271 14.7123 14.7278 14.8046 14.7278C15.2052 14.7278 15.6057 14.7311 16.0058 14.7239C16.0949 14.7224 16.1912 14.6974 16.2709 14.6569C16.5798 14.4993 16.7167 14.1738 16.6298 13.8319C16.566 13.581 16.3191 13.3119 15.9363 13.3224C15.547 13.3304 15.1574 13.3206 14.7681 13.3246C14.7253 13.325 14.709 13.313 14.7127 13.2681C14.7138 12.8549 14.7264 12.4403 14.7105 12.0275C14.687 11.4937 14.0847 11.2127 13.6335 11.4897C13.3804 11.645 13.2989 11.8877 13.304 12.173C13.3101 12.5359 13.3083 12.8991 13.3116 13.2623C13.312 13.3112 13.296 13.3264 13.246 13.3257C13.0414 13.3228 12.8368 13.3246 12.6322 13.3246V13.3239Z" fill="#002464"/>
<path d="M14.0815 9.27165C16.6845 9.32706 18.829 11.4513 18.7602 14.1542C18.3977 20.3839 9.33288 20.2688 9.2648 13.8776C9.34157 11.2927 11.4636 9.2597 14.0815 9.27129V9.27165ZM12.6322 13.3239C12.432 13.3242 12.2317 13.3188 12.0315 13.3257C11.4253 13.3264 11.1457 14.1115 11.5705 14.5247C11.728 14.6905 11.9283 14.734 12.1477 14.7311C12.5106 14.7268 12.8738 14.7293 13.237 14.7264C13.2953 14.726 13.312 14.7456 13.3116 14.8028C13.3083 15.1747 13.3083 15.5466 13.3076 15.9185C13.3076 16.0471 13.3185 16.1745 13.3808 16.2901C13.6954 16.9028 14.7011 16.7511 14.7138 15.9714C14.7098 15.5865 14.7134 15.2011 14.713 14.8162C14.713 14.7271 14.7123 14.7278 14.8046 14.7278C15.2052 14.7278 15.6057 14.7311 16.0058 14.7239C16.0949 14.7224 16.1912 14.6974 16.2709 14.6569C16.5798 14.4993 16.7167 14.1738 16.6298 13.8319C16.566 13.581 16.3191 13.3119 15.9363 13.3224C15.547 13.3304 15.1574 13.3206 14.7681 13.3246C14.7253 13.325 14.709 13.313 14.7127 13.2681C14.7138 12.8549 14.7264 12.4403 14.7105 12.0275C14.687 11.4937 14.0847 11.2127 13.6335 11.4897C13.3804 11.645 13.2989 11.8877 13.304 12.173C13.3101 12.5359 13.3083 12.8991 13.3116 13.2623C13.312 13.3112 13.296 13.3264 13.246 13.3257C13.0414 13.3228 12.8368 13.3246 12.6322 13.3246V13.3239Z" fill="black" fill-opacity="0.2"/>
</svg>
