<svg width="20" height="20" viewBox="0 0 20 20" fill="none" xmlns="http://www.w3.org/2000/svg">
<path d="M11.7288 8.27843C11.7477 7.87248 11.4891 7.55779 11.0777 7.51723C8.89626 7.52122 6.70465 7.48826 4.52319 7.53063C3.892 7.63891 3.7696 8.54676 4.34176 8.8361C4.42505 8.88246 4.52862 8.91107 4.62386 8.91288C6.59456 8.93207 8.56491 8.89984 10.5352 8.92555C9.84974 9.40537 9.27903 9.99347 8.81876 10.7022C8.71229 10.4755 8.47836 10.3328 8.23465 10.3292C7.04179 10.3277 5.84894 10.3274 4.65609 10.3292C4.30048 10.3295 4.00426 10.6109 3.97674 10.9658C3.94016 11.4547 4.32148 11.7712 4.77885 11.744C5.94382 11.744 7.10806 11.7415 8.27303 11.7404C7.66466 13.3978 7.70413 15.0386 8.42766 16.6675C6.89006 16.6671 5.35319 16.6798 3.81559 16.6628C2.98595 16.6537 2.38373 16.2467 2.02704 15.4949C1.91079 15.2501 1.86299 14.984 1.86299 14.7131C1.8619 11.0766 1.85539 7.44082 1.86806 3.80469C1.83474 2.7288 2.79909 1.8539 3.86158 1.87635C6.53119 1.87635 9.20117 1.87201 11.8708 1.87889C12.6034 1.8807 13.1734 2.20734 13.5605 2.83274C13.7647 3.163 13.8382 3.53237 13.8382 3.91767C13.8382 5.16774 13.8382 6.41781 13.8382 7.66824C13.8353 7.83844 13.8694 7.8819 13.6724 7.88262C13.2939 7.9 12.9173 7.93621 12.5505 8.03435C12.2756 8.10786 12.0044 8.19622 11.7285 8.27915L11.7288 8.27843ZM6.08722 6.1024C6.5627 6.1024 7.03781 6.10384 7.51329 6.10203C7.79756 6.10095 8.05684 5.92169 8.15498 5.66494C8.25999 5.38936 8.1901 5.0754 7.98478 4.88021C7.81784 4.7216 7.61106 4.68285 7.39342 4.68213C6.52866 4.68973 5.66426 4.68756 4.79949 4.68104C4.27513 4.64591 3.85977 5.0649 4.00064 5.59976C4.06618 5.84999 4.32583 6.10783 4.68759 6.10348C5.15402 6.09805 5.6208 6.10203 6.08722 6.10203V6.1024Z" fill="#2152CB"/>
<path d="M14.0813 9.27165C16.6843 9.32706 18.8288 11.4513 18.76 14.1542C18.3975 20.3839 9.33273 20.2688 9.26465 13.8776C9.34142 11.2927 11.4635 9.2597 14.0813 9.27129V9.27165ZM12.6321 13.3239C12.4318 13.3242 12.2316 13.3188 12.0313 13.3257C11.4251 13.3264 11.1455 14.1115 11.5703 14.5247C11.7278 14.6905 11.9281 14.734 12.1476 14.7311C12.5104 14.7268 12.8736 14.7293 13.2368 14.7264C13.2951 14.726 13.3118 14.7456 13.3114 14.8028C13.3082 15.1747 13.3082 15.5466 13.3075 15.9185C13.3075 16.0471 13.3183 16.1745 13.3806 16.2901C13.6953 16.9028 14.7009 16.7511 14.7136 15.9714C14.7096 15.5865 14.7132 15.2011 14.7129 14.8162C14.7129 14.7271 14.7122 14.7278 14.8045 14.7278C15.205 14.7278 15.6055 14.7311 16.0057 14.7239C16.0948 14.7224 16.1911 14.6974 16.2708 14.6569C16.5796 14.4993 16.7165 14.1738 16.6296 13.8319C16.5659 13.581 16.3189 13.3119 15.9361 13.3224C15.5469 13.3304 15.1572 13.3206 14.7679 13.3246C14.7252 13.325 14.7089 13.313 14.7125 13.2681C14.7136 12.8549 14.7263 12.4403 14.7103 12.0275C14.6868 11.4937 14.0846 11.2127 13.6334 11.4897C13.3802 11.645 13.2988 11.8877 13.3038 12.173C13.31 12.5359 13.3082 12.8991 13.3114 13.2623C13.3118 13.3112 13.2959 13.3264 13.2459 13.3257C13.0413 13.3228 12.8367 13.3246 12.6321 13.3246V13.3239Z" fill="#2152CB"/>
</svg>
