<svg width="60" height="60" viewBox="0 0 60 60" fill="none" xmlns="http://www.w3.org/2000/svg">
<path d="M14.1025 49.0668C17.1945 49.0668 19.7011 46.5602 19.7011 43.4682C19.7011 40.3762 17.1945 37.8696 14.1025 37.8696C11.0105 37.8696 8.50391 40.3762 8.50391 43.4682C8.50391 46.5602 11.0105 49.0668 14.1025 49.0668Z" fill="#98A1AE"/>
<path d="M50.1228 44.1021C52.8065 44.1021 54.982 41.9266 54.982 39.2429C54.982 36.5593 52.8065 34.3838 50.1228 34.3838C47.4392 34.3838 45.2637 36.5593 45.2637 39.2429C45.2637 41.9266 47.4392 44.1021 50.1228 44.1021Z" fill="#C8D2DC"/>
<path d="M45.6869 19.5951C47.9039 19.5951 49.701 17.7979 49.701 15.581C49.701 13.3641 47.9039 11.5669 45.6869 11.5669C43.47 11.5669 41.6729 13.3641 41.6729 15.581C41.6729 17.7979 43.47 19.5951 45.6869 19.5951Z" fill="#E9EDF1"/>
<path d="M9.69137 35.4007C12.9727 35.4007 15.6327 32.8055 15.6327 29.6042C15.6327 26.4028 12.9727 23.8076 9.69137 23.8076C6.41004 23.8076 3.75 26.4028 3.75 29.6042C3.75 32.8055 6.41004 35.4007 9.69137 35.4007Z" fill="#7E8B96"/>
<path d="M26.7597 56.25C29.7427 56.25 32.1609 53.8936 32.1609 50.9868C32.1609 48.08 29.7427 45.7236 26.7597 45.7236C23.7766 45.7236 21.3584 48.08 21.3584 50.9868C21.3584 53.8936 23.7766 56.25 26.7597 56.25Z" fill="#A2ABB8"/>
<path d="M40.64 53.944C43.4738 53.944 45.7711 51.7071 45.7711 48.9478C45.7711 46.1885 43.4738 43.9517 40.64 43.9517C37.8061 43.9517 35.5088 46.1885 35.5088 48.9478C35.5088 51.7071 37.8061 53.944 40.64 53.944Z" fill="#B9C3CD"/>
<path d="M16.1186 21.9391C19.549 21.9391 22.33 19.2246 22.33 15.8761C22.33 12.5275 19.549 9.81299 16.1186 9.81299C12.6882 9.81299 9.90723 12.5275 9.90723 15.8761C9.90723 19.2246 12.6882 21.9391 16.1186 21.9391Z" fill="#5F6C75"/>
<path d="M51.6584 31.1232C54.194 31.1232 56.2495 29.1058 56.2495 26.6172C56.2495 24.1287 54.194 22.1113 51.6584 22.1113C49.1229 22.1113 47.0674 24.1287 47.0674 26.6172C47.0674 29.1058 49.1229 31.1232 51.6584 31.1232Z" fill="#DCE6EB"/>
<path d="M31.5317 16.8486C35.1488 16.8486 38.081 13.9164 38.081 10.2993C38.081 6.68222 35.1488 3.75 31.5317 3.75C27.9146 3.75 24.9824 6.68222 24.9824 10.2993C24.9824 13.9164 27.9146 16.8486 31.5317 16.8486Z" fill="#4E5A61"/>
</svg>
