<svg width="28" height="28" viewBox="0 0 28 28" fill="none" xmlns="http://www.w3.org/2000/svg">
<path d="M23.9549 7.40557L15.7315 2.78363C15.2053 2.48862 14.6078 2.33325 13.9995 2.33325C13.3913 2.33325 12.7938 2.48862 12.2676 2.78363L4.04473 7.40557C4.01234 7.42395 3.98548 7.4502 3.96682 7.48172C3.94816 7.51323 3.93834 7.54892 3.93834 7.58524C3.93834 7.62156 3.94816 7.65725 3.96682 7.68876C3.98548 7.72028 4.01234 7.74653 4.04473 7.76491L13.8921 13.3675C13.9252 13.3864 13.963 13.3963 14.0014 13.3963C14.0399 13.3963 14.0776 13.3864 14.1107 13.3675L23.956 7.76491C23.9883 7.74644 24.0151 7.72012 24.0336 7.68855C24.0522 7.65698 24.0619 7.62126 24.0618 7.58494C24.0617 7.54862 24.0518 7.51296 24.033 7.4815C24.0143 7.45003 23.9873 7.42386 23.9549 7.40557ZM13.9998 8.5841C13.2863 8.5841 12.7075 8.21122 12.7075 7.75085C12.7075 7.29048 13.2863 6.9176 13.9998 6.9176C14.7133 6.9176 15.2921 7.29048 15.2921 7.75085C15.2921 8.21122 14.7133 8.5841 13.9998 8.5841ZM13.0306 14.7715L3.12288 9.18196C3.09016 9.16368 3.05303 9.15406 3.01524 9.15405C2.97746 9.15404 2.94033 9.16365 2.90759 9.18191C2.87486 9.20016 2.84766 9.22643 2.82874 9.25807C2.80982 9.28971 2.79984 9.3256 2.7998 9.36215V18.4196C2.80062 18.856 2.91954 19.2846 3.14475 19.6627C3.36996 20.0409 3.6936 20.3555 4.0835 20.5751L12.8152 25.6387C12.8479 25.657 12.885 25.6666 12.9228 25.6666C12.9606 25.6666 12.9977 25.657 13.0305 25.6387C13.0632 25.6205 13.0904 25.5942 13.1093 25.5626C13.1282 25.5309 13.1382 25.495 13.1383 25.4585V14.9517C13.1382 14.9152 13.1283 14.8793 13.1094 14.8477C13.0905 14.816 13.0633 14.7898 13.0306 14.7715ZM5.38442 19.833C4.90842 19.833 4.52288 19.2732 4.52288 18.5831C4.52288 17.8931 4.90842 17.3332 5.38442 17.3332C5.86042 17.3332 6.24596 17.8931 6.24596 18.5831C6.24596 19.2732 5.86042 19.833 5.38442 19.833ZM10.5536 18.1665C10.0776 18.1665 9.69211 17.6067 9.69211 16.9166C9.69211 16.2266 10.0776 15.6667 10.5536 15.6667C11.0296 15.6667 11.4152 16.2266 11.4152 16.9166C11.4152 17.6067 11.0296 18.1665 10.5536 18.1665ZM24.8767 9.18352L14.969 14.8106C14.9364 14.8288 14.9093 14.855 14.8904 14.8865C14.8715 14.918 14.8615 14.9538 14.8613 14.9902V25.4574C14.8614 25.494 14.8714 25.5299 14.8903 25.5615C14.9092 25.5932 14.9364 25.6194 14.9691 25.6377C15.0019 25.6559 15.039 25.6656 15.0768 25.6655C15.1146 25.6655 15.1517 25.6559 15.1844 25.6376L23.9156 20.5741C24.3054 20.3546 24.6291 20.0402 24.8544 19.6622C25.0797 19.2843 25.1987 18.8559 25.1998 18.4196V9.36527C25.2 9.32859 25.1903 9.2925 25.1715 9.26064C25.1527 9.22879 25.1255 9.2023 25.0927 9.18386C25.0599 9.16541 25.0227 9.15567 24.9848 9.15561C24.9468 9.15555 24.9096 9.16518 24.8767 9.18352ZM17.446 22.7494C16.97 22.7494 16.5844 22.1895 16.5844 21.4995C16.5844 20.8095 16.97 20.2496 17.446 20.2496C17.922 20.2496 18.3075 20.8095 18.3075 21.4995C18.3075 22.1895 17.922 22.7494 17.446 22.7494ZM17.446 18.1665C16.97 18.1665 16.5844 17.6067 16.5844 16.9166C16.5844 16.2266 16.97 15.6667 17.446 15.6667C17.922 15.6667 18.3075 16.2266 18.3075 16.9166C18.3075 17.6067 17.922 18.1665 17.446 18.1665ZM22.6152 19.833C22.1392 19.833 21.7536 19.2732 21.7536 18.5831C21.7536 17.8931 22.1392 17.3332 22.6152 17.3332C23.0912 17.3332 23.4767 17.8931 23.4767 18.5831C23.4767 19.2732 23.0912 19.833 22.6152 19.833ZM22.6152 15.2501C22.1392 15.2501 21.7536 14.6903 21.7536 14.0002C21.7536 13.3102 22.1392 12.7504 22.6152 12.7504C23.0912 12.7504 23.4767 13.3102 23.4767 14.0002C23.4767 14.6903 23.0912 15.2501 22.6152 15.2501Z" fill="white"/>
</svg>
