<svg width="28" height="28" viewBox="0 0 28 28" fill="none" xmlns="http://www.w3.org/2000/svg">
<path d="M7.09961 13.9646C7.09961 11.8076 7.09961 9.65065 7.09961 7.49367C7.09961 6.84531 7.289 6.65088 7.92125 6.65088C12.0176 6.65088 16.1139 6.65088 20.2103 6.65088C20.8321 6.65088 21.0312 6.84601 21.0312 7.4587C21.0319 11.8195 21.0319 16.1803 21.0312 20.5412C21.0312 21.1532 20.8314 21.349 20.2096 21.349C16.1132 21.349 12.0169 21.349 7.92055 21.349C7.28831 21.349 7.09961 21.1546 7.09961 20.5055C7.09961 18.3254 7.09961 16.1447 7.09961 13.9646ZM16.8506 11.8916C16.8464 10.3536 15.5889 9.09812 14.0571 9.10161C12.5273 9.10581 11.276 10.3703 11.2802 11.9083C11.2844 13.4457 12.5426 14.7025 14.0738 14.6983C15.6042 14.6941 16.8541 13.4303 16.8506 11.8909V11.8916ZM10.2337 16.0957C10.2337 15.6537 10.2385 15.2117 10.2323 14.7696C10.226 14.3171 9.94818 14.0101 9.55059 14.0024C9.13977 13.994 8.84593 14.3073 8.84315 14.7773C8.83827 15.6614 8.83758 16.5454 8.84315 17.4288C8.84593 17.8785 9.12863 18.1884 9.52413 18.1967C9.93216 18.2051 10.226 17.8883 10.2323 17.4211C10.2378 16.9791 10.2337 16.537 10.2337 16.095V16.0957Z" fill="white"/>
<path d="M3.2666 13.9941C3.2666 11.0076 3.2666 8.02185 3.2666 5.03606C3.2666 3.61556 4.0757 2.80005 5.48641 2.80005C11.2093 2.80005 16.9322 2.80005 22.6551 2.80005C24.0449 2.80005 24.8596 3.61906 24.8603 5.01438C24.861 6.00615 24.8534 6.99721 24.8652 7.98898C24.8687 8.28553 24.7747 8.41422 24.4655 8.40443C23.9203 8.38764 23.3744 8.38904 22.8292 8.40443C22.5319 8.41282 22.3982 8.31001 22.4191 8.00087C22.4358 7.75677 22.426 7.51128 22.4212 7.26648C22.3975 6.12085 21.5459 5.26267 20.4019 5.25358C19.1019 5.24309 17.8019 5.25078 16.5012 5.25078C13.6338 5.25078 10.7665 5.25078 7.8991 5.25078C6.53086 5.25078 5.70644 6.07469 5.70644 7.44204C5.70575 11.8162 5.70575 16.1903 5.70644 20.5644C5.70644 21.9128 6.53365 22.7458 7.87403 22.7458C12.0066 22.7472 16.1391 22.7472 20.2717 22.7458C21.5884 22.7458 22.4135 21.9065 22.4226 20.5805C22.4309 19.4425 22.2645 19.6097 23.3953 19.5971C23.7783 19.5929 24.1612 19.5999 24.5442 19.5957C24.7628 19.5929 24.8617 19.6922 24.861 19.9125C24.8575 21.0442 24.8847 22.1758 24.8478 23.3061C24.8137 24.3615 23.9502 25.1672 22.8884 25.1931C22.355 25.2064 21.8203 25.1966 21.2862 25.1966C16.0277 25.1966 10.7693 25.1966 5.51009 25.1966C4.07222 25.198 3.2666 24.3923 3.2666 22.9522C3.2666 19.9664 3.2666 16.9799 3.2666 13.9941Z" fill="white"/>
<path d="M23.6339 11.9003C23.3442 11.9003 23.0539 11.8947 22.7642 11.9017C22.5351 11.9073 22.4182 11.8185 22.4209 11.5758C22.4272 11.0862 22.4251 10.5966 22.4216 10.1077C22.4203 9.88393 22.5303 9.7972 22.7447 9.7986C23.3477 9.8028 23.9507 9.8021 24.5537 9.7986C24.7765 9.7979 24.8636 9.90771 24.8622 10.1231C24.858 10.6127 24.8587 11.1023 24.8622 11.5912C24.8636 11.8143 24.7529 11.9045 24.5384 11.9003C24.2369 11.8954 23.9354 11.8989 23.6339 11.8989V11.9003Z" fill="white"/>
<path d="M23.6094 18.1987C23.3197 18.1987 23.0294 18.1952 22.7397 18.2001C22.5218 18.2036 22.4215 18.1043 22.4229 17.884C22.4264 17.3944 22.4271 16.9048 22.4229 16.4159C22.4208 16.197 22.5176 16.0963 22.7369 16.0977C23.3399 16.1012 23.9429 16.1012 24.5459 16.0977C24.7638 16.0963 24.8648 16.1928 24.8634 16.4131C24.8599 16.9027 24.8599 17.3923 24.8634 17.8812C24.8648 18.1001 24.768 18.2029 24.5487 18.1994C24.2354 18.1952 23.9227 18.198 23.6094 18.1987Z" fill="white"/>
<path d="M23.6495 14.6996C23.3828 14.6996 23.1155 14.6856 22.8495 14.7031C22.5403 14.7241 22.3899 14.6164 22.4185 14.2869C22.4352 14.0904 22.4317 13.8904 22.4185 13.6931C22.4004 13.4134 22.5034 13.2875 22.7966 13.2945C23.3647 13.3085 23.9329 13.3064 24.5011 13.2945C24.7775 13.2889 24.8757 13.4113 24.8625 13.6749C24.8513 13.8841 24.8479 14.0953 24.8632 14.3037C24.8869 14.6171 24.742 14.7192 24.4489 14.7024C24.1829 14.687 23.9155 14.6989 23.6488 14.6989L23.6495 14.6996Z" fill="white"/>
<path d="M15.4557 11.9298C15.439 12.6991 14.7984 13.316 14.0339 13.2992C13.2686 13.2824 12.6552 12.639 12.6712 11.8703C12.6879 11.1009 13.3278 10.4848 14.0931 10.5016C14.859 10.5183 15.4717 11.1611 15.4557 11.9305V11.9298Z" fill="white"/>
<path d="M7.09961 13.9646C7.09961 11.8076 7.09961 9.65065 7.09961 7.49367C7.09961 6.84531 7.289 6.65088 7.92125 6.65088C12.0176 6.65088 16.1139 6.65088 20.2103 6.65088C20.8321 6.65088 21.0312 6.84601 21.0312 7.4587C21.0319 11.8195 21.0319 16.1803 21.0312 20.5412C21.0312 21.1532 20.8314 21.349 20.2096 21.349C16.1132 21.349 12.0169 21.349 7.92055 21.349C7.28831 21.349 7.09961 21.1546 7.09961 20.5055C7.09961 18.3254 7.09961 16.1447 7.09961 13.9646ZM16.8506 11.8916C16.8464 10.3536 15.5889 9.09812 14.0571 9.10161C12.5273 9.10581 11.276 10.3703 11.2802 11.9083C11.2844 13.4457 12.5426 14.7025 14.0738 14.6983C15.6042 14.6941 16.8541 13.4303 16.8506 11.8909V11.8916ZM10.2337 16.0957C10.2337 15.6537 10.2385 15.2117 10.2323 14.7696C10.226 14.3171 9.94818 14.0101 9.55059 14.0024C9.13977 13.994 8.84593 14.3073 8.84315 14.7773C8.83827 15.6614 8.83758 16.5454 8.84315 17.4288C8.84593 17.8785 9.12863 18.1884 9.52413 18.1967C9.93216 18.2051 10.226 17.8883 10.2323 17.4211C10.2378 16.9791 10.2337 16.537 10.2337 16.095V16.0957Z" fill="white"/>
<path d="M3.2666 13.9941C3.2666 11.0076 3.2666 8.02185 3.2666 5.03606C3.2666 3.61556 4.0757 2.80005 5.48641 2.80005C11.2093 2.80005 16.9322 2.80005 22.6551 2.80005C24.0449 2.80005 24.8596 3.61906 24.8603 5.01438C24.861 6.00615 24.8534 6.99721 24.8652 7.98898C24.8687 8.28553 24.7747 8.41422 24.4655 8.40443C23.9203 8.38764 23.3744 8.38904 22.8292 8.40443C22.5319 8.41282 22.3982 8.31001 22.4191 8.00087C22.4358 7.75677 22.426 7.51128 22.4212 7.26648C22.3975 6.12085 21.5459 5.26267 20.4019 5.25358C19.1019 5.24309 17.8019 5.25078 16.5012 5.25078C13.6338 5.25078 10.7665 5.25078 7.8991 5.25078C6.53086 5.25078 5.70644 6.07469 5.70644 7.44204C5.70575 11.8162 5.70575 16.1903 5.70644 20.5644C5.70644 21.9128 6.53365 22.7458 7.87403 22.7458C12.0066 22.7472 16.1391 22.7472 20.2717 22.7458C21.5884 22.7458 22.4135 21.9065 22.4226 20.5805C22.4309 19.4425 22.2645 19.6097 23.3953 19.5971C23.7783 19.5929 24.1612 19.5999 24.5442 19.5957C24.7628 19.5929 24.8617 19.6922 24.861 19.9125C24.8575 21.0442 24.8847 22.1758 24.8478 23.3061C24.8137 24.3615 23.9502 25.1672 22.8884 25.1931C22.355 25.2064 21.8203 25.1966 21.2862 25.1966C16.0277 25.1966 10.7693 25.1966 5.51009 25.1966C4.07222 25.198 3.2666 24.3923 3.2666 22.9522C3.2666 19.9664 3.2666 16.9799 3.2666 13.9941Z" fill="white"/>
<path d="M23.6339 11.9003C23.3442 11.9003 23.0539 11.8947 22.7642 11.9017C22.5351 11.9073 22.4182 11.8185 22.4209 11.5758C22.4272 11.0862 22.4251 10.5966 22.4216 10.1077C22.4203 9.88393 22.5303 9.7972 22.7447 9.7986C23.3477 9.8028 23.9507 9.8021 24.5537 9.7986C24.7765 9.7979 24.8636 9.90771 24.8622 10.1231C24.858 10.6127 24.8587 11.1023 24.8622 11.5912C24.8636 11.8143 24.7529 11.9045 24.5384 11.9003C24.2369 11.8954 23.9354 11.8989 23.6339 11.8989V11.9003Z" fill="white"/>
<path d="M23.6094 18.1987C23.3197 18.1987 23.0294 18.1952 22.7397 18.2001C22.5218 18.2036 22.4215 18.1043 22.4229 17.884C22.4264 17.3944 22.4271 16.9048 22.4229 16.4159C22.4208 16.197 22.5176 16.0963 22.7369 16.0977C23.3399 16.1012 23.9429 16.1012 24.5459 16.0977C24.7638 16.0963 24.8648 16.1928 24.8634 16.4131C24.8599 16.9027 24.8599 17.3923 24.8634 17.8812C24.8648 18.1001 24.768 18.2029 24.5487 18.1994C24.2354 18.1952 23.9227 18.198 23.6094 18.1987Z" fill="white"/>
<path d="M23.6495 14.6996C23.3828 14.6996 23.1155 14.6856 22.8495 14.7031C22.5403 14.7241 22.3899 14.6164 22.4185 14.2869C22.4352 14.0904 22.4317 13.8904 22.4185 13.6931C22.4004 13.4134 22.5034 13.2875 22.7966 13.2945C23.3647 13.3085 23.9329 13.3064 24.5011 13.2945C24.7775 13.2889 24.8757 13.4113 24.8625 13.6749C24.8513 13.8841 24.8479 14.0953 24.8632 14.3037C24.8869 14.6171 24.742 14.7192 24.4489 14.7024C24.1829 14.687 23.9155 14.6989 23.6488 14.6989L23.6495 14.6996Z" fill="white"/>
<path d="M15.4557 11.9298C15.439 12.6991 14.7984 13.316 14.0339 13.2992C13.2686 13.2824 12.6552 12.639 12.6712 11.8703C12.6879 11.1009 13.3278 10.4848 14.0931 10.5016C14.859 10.5183 15.4717 11.1611 15.4557 11.9305V11.9298Z" fill="white"/>
</svg>
