<svg width="28" height="28" viewBox="0 0 28 28" fill="none" xmlns="http://www.w3.org/2000/svg">
<path d="M10.8156 25.021C9.83601 25.021 8.9187 25.0444 8.00268 25.0151C6.8092 24.9768 5.81215 24.0305 5.79205 22.8386C5.7538 20.6003 5.78038 18.3607 5.78168 16.1218C5.78168 16.1004 5.80113 16.0789 5.82187 16.0374C6.70936 16.3797 7.62214 16.5382 8.58095 16.4245C9.39 16.3284 10.1388 16.0776 10.8279 15.6509C11.0029 15.5424 11.1287 15.5392 11.3121 15.6437C13.2077 16.7233 15.1104 16.7187 17.0202 15.6684C17.1389 15.6028 17.3502 15.5736 17.4546 15.6353C19.1434 16.6349 20.8788 16.7564 22.6758 15.9633C22.7082 15.949 22.7478 15.9503 22.8133 15.9399C22.8197 16.0757 22.8308 16.1991 22.8308 16.3225C22.8321 18.3802 22.8327 20.4379 22.8308 22.4963C22.8295 24.0473 21.8635 25.0203 20.3265 25.0242C19.5006 25.0262 18.6747 25.0242 17.791 25.0242C17.791 24.8709 17.791 24.7352 17.791 24.5988C17.791 23.24 17.793 21.8812 17.7904 20.5217C17.7885 19.4376 17.1635 18.8128 16.0828 18.8108C14.8816 18.8089 13.6803 18.8076 12.479 18.8108C11.4541 18.8141 10.8195 19.4552 10.8169 20.4892C10.8136 21.848 10.8162 23.2069 10.8162 24.5663C10.8162 24.7053 10.8162 24.8443 10.8162 25.0203L10.8156 25.021Z" fill="white"/>
<path d="M11.0819 3.29225C10.9827 4.15677 10.8867 4.99986 10.7888 5.84229C10.5944 7.50963 10.3979 9.17632 10.2034 10.843C10.0718 11.9712 9.94737 13.1008 9.80086 14.2277C9.78465 14.3492 9.66213 14.5128 9.54933 14.5577C8.11015 15.1377 6.72413 15.0474 5.52546 14.0179C4.31772 12.9819 3.92615 11.6224 4.38903 10.0954C4.92321 8.33193 5.52027 6.58665 6.12058 4.84397C6.42851 3.95022 7.093 3.38123 8.03106 3.30978C9.02876 3.23379 10.0368 3.2929 11.0812 3.2929L11.0819 3.29225Z" fill="white"/>
<path d="M17.5153 3.28696C18.4702 3.28696 19.3752 3.2324 20.2705 3.3019C21.2248 3.3753 21.9054 3.9261 22.2205 4.83869C22.8221 6.58137 23.4211 8.326 23.9624 10.0875C24.4117 11.5496 24.0512 12.8688 22.9466 13.9145C21.8614 14.9421 20.5525 15.1655 19.1399 14.7011C18.9999 14.655 18.8339 14.4504 18.8157 14.303C18.5623 12.2394 18.3367 10.1726 18.0955 8.10776C17.9101 6.51772 17.713 4.92897 17.5146 3.28696H17.5153Z" fill="white"/>
<path d="M17.1742 13.7379C16.6296 14.0426 16.1207 14.4128 15.5528 14.6272C14.1234 15.1669 12.7911 14.9097 11.6041 13.9471C11.514 13.8743 11.4362 13.7094 11.4486 13.5983C11.6242 12.0199 11.8174 10.4429 12.0035 8.86584C12.2019 7.18551 12.3957 5.50518 12.5934 3.82485C12.6142 3.64818 12.6492 3.47345 12.679 3.29224H15.9463C16.3541 6.76396 16.7612 10.2247 17.1742 13.7379Z" fill="white"/>
<path d="M12.3965 20.3726H16.2116V24.9991H12.3965V20.3726Z" fill="white"/>
</svg>
