<svg width="32" height="32" viewBox="0 0 32 32" fill="none" xmlns="http://www.w3.org/2000/svg">
<path d="M28.2052 17.64H3.7949C2.80336 17.64 2 17.0134 2 16.24C2 15.4667 2.80336 14.84 3.7949 14.84H28.2052C29.1966 14.84 30 15.4666 30 16.24C30 17.0134 29.1966 17.64 28.2052 17.64Z" fill="#F4F7FF"/>
<path d="M15.104 9.8H3.45602C2.65168 9.8 2 9.17335 2 8.4C2 7.62665 2.65168 7 3.45602 7H15.104C15.9083 7 16.56 7.62661 16.56 8.4C16.56 9.17339 15.9083 9.8 15.104 9.8Z" fill="#F4F7FF"/>
<path d="M28.5439 25.48H16.896C16.0916 25.48 15.4399 24.8533 15.4399 24.08C15.4399 23.3066 16.0916 22.68 16.896 22.68H28.5439C29.3482 22.68 29.9999 23.3066 29.9999 24.08C29.9999 24.8534 29.3482 25.48 28.5439 25.48Z" fill="#F4F7FF"/>
</svg>
