<svg width="80" height="80" viewBox="0 0 80 80" fill="none" xmlns="http://www.w3.org/2000/svg">
<path fill-rule="evenodd" clip-rule="evenodd" d="M22.8872 69.6695L33.3687 72.4504V68.8139L34.2244 67.9583H40.2137V72.2363V75.231H33.7965L25.8819 71.8085L22.8872 69.6695Z" fill="#CDBDB2"/>
<path fill-rule="evenodd" clip-rule="evenodd" d="M57.1128 69.6695L46.8454 72.4504V68.8139L45.9897 67.9583H40.0004V72.2363V75.231H46.4176L54.3318 71.8085L57.1128 69.6695Z" fill="#CDBDB2"/>
<path fill-rule="evenodd" clip-rule="evenodd" d="M34.2248 61.7543L33.3691 68.813L34.4385 67.9573H45.5615L46.845 68.813L45.9893 61.7543L44.2781 60.6846L35.7219 60.8987L34.2248 61.7543Z" fill="#393939"/>
<path fill-rule="evenodd" clip-rule="evenodd" d="M28.4487 14.0537L33.5824 26.0324L35.9356 60.899H44.2777L46.8445 26.0324L51.5504 14.0537H28.4487Z" fill="#F89C35"/>
<path fill-rule="evenodd" clip-rule="evenodd" d="M5.98933 40.3634L0 57.6895L14.9733 56.8339H24.5989V49.3474L24.171 33.9463L22.032 35.6575L5.98933 40.3634Z" fill="#F89D35"/>
<path fill-rule="evenodd" clip-rule="evenodd" d="M17.3257 42.2893L34.8659 42.7171L32.9409 51.7011L24.5984 49.5621L17.3257 42.2893Z" fill="#D87C30"/>
<path fill-rule="evenodd" clip-rule="evenodd" d="M17.3257 42.5027L24.5984 49.3476V56.1926L17.3257 42.5027Z" fill="#EA8D3A"/>
<path fill-rule="evenodd" clip-rule="evenodd" d="M24.5996 49.5615L33.1558 51.7006L35.9368 60.8987L34.0114 61.968L24.5996 56.4065V49.5615Z" fill="#F89D35"/>
<path fill-rule="evenodd" clip-rule="evenodd" d="M24.5984 56.4072L22.8872 69.6693L34.2244 61.755L24.5984 56.4072Z" fill="#EB8F35"/>
<path fill-rule="evenodd" clip-rule="evenodd" d="M34.8671 42.7175L35.9368 60.8996L32.728 51.5947L34.8671 42.7175Z" fill="#EA8E3A"/>
<path fill-rule="evenodd" clip-rule="evenodd" d="M14.7593 56.6213L24.5989 56.4072L22.8877 69.6693L14.7593 56.6213Z" fill="#D87C30"/>
<path fill-rule="evenodd" clip-rule="evenodd" d="M4.7059 75.444L22.8876 69.6684L14.7592 56.6204L0 57.6897L4.7059 75.444Z" fill="#EB8F35"/>
<path fill-rule="evenodd" clip-rule="evenodd" d="M33.5824 26.033L24.3847 33.7335L17.3257 42.2897L34.8659 42.9316L33.5824 26.033Z" fill="#E8821E"/>
<path fill-rule="evenodd" clip-rule="evenodd" d="M22.8872 69.6682L34.2244 61.7539L33.3687 68.5989V72.4491L25.6682 70.9516L22.8872 69.6682Z" fill="#DFCEC3"/>
<path fill-rule="evenodd" clip-rule="evenodd" d="M57.1128 69.6682L45.9897 61.7539L46.8454 68.5989V72.4491L54.5459 70.9516L57.1128 69.6682Z" fill="#DFCEC3"/>
<path fill-rule="evenodd" clip-rule="evenodd" d="M30.16 46.5667L32.5132 51.4867L24.1707 49.3476L30.16 46.5667Z" fill="#393939"/>
<path fill-rule="evenodd" clip-rule="evenodd" d="M4.49219 4L33.5832 26.032L28.6636 14.0533L4.49219 4Z" fill="#E88F35"/>
<path fill-rule="evenodd" clip-rule="evenodd" d="M4.4914 4L0.641113 15.7648L2.78016 28.599L1.28283 29.4547L3.42188 31.3798L1.71064 32.8771L4.06359 35.0162L2.56626 36.2996L5.98873 40.5777L22.0316 35.6579C29.8748 29.3834 33.725 26.1748 33.5824 26.0322C33.4398 25.8896 23.7428 18.5455 4.4914 4Z" fill="#8E5A30"/>
<path fill-rule="evenodd" clip-rule="evenodd" d="M74.0107 40.3634L80 57.6895L65.0267 56.8339H55.4011V49.3474L55.829 33.9463L57.968 35.6575L74.0107 40.3634Z" fill="#F89D35"/>
<path fill-rule="evenodd" clip-rule="evenodd" d="M62.6743 42.2893L45.1341 42.7171L47.0591 51.7011L55.4016 49.5621L62.6743 42.2893Z" fill="#D87C30"/>
<path fill-rule="evenodd" clip-rule="evenodd" d="M62.6743 42.5027L55.4016 49.3476V56.1926L62.6743 42.5027Z" fill="#EA8D3A"/>
<path fill-rule="evenodd" clip-rule="evenodd" d="M55.4004 49.5615L46.8442 51.7006L44.0632 60.8987L45.9886 61.968L55.4004 56.4065V49.5615Z" fill="#F89D35"/>
<path fill-rule="evenodd" clip-rule="evenodd" d="M55.4016 56.4072L57.1128 69.6693L45.9897 61.9687L55.4016 56.4072Z" fill="#EB8F35"/>
<path fill-rule="evenodd" clip-rule="evenodd" d="M45.1329 42.7175L44.0632 60.8996L47.272 51.5947L45.1329 42.7175Z" fill="#EA8E3A"/>
<path fill-rule="evenodd" clip-rule="evenodd" d="M65.2407 56.6213L55.4011 56.4072L57.1123 69.6693L65.2407 56.6213Z" fill="#D87C30"/>
<path fill-rule="evenodd" clip-rule="evenodd" d="M75.2941 75.444L57.1124 69.6684L65.2408 56.6204L80 57.6897L75.2941 75.444Z" fill="#EB8F35"/>
<path fill-rule="evenodd" clip-rule="evenodd" d="M46.4176 26.033L55.6153 33.7335L62.6743 42.2897L45.1341 42.9316L46.4176 26.033Z" fill="#E8821E"/>
<path fill-rule="evenodd" clip-rule="evenodd" d="M49.8385 46.5667L47.4854 51.4867L55.8278 49.3476L49.8385 46.5667Z" fill="#393939"/>
<path fill-rule="evenodd" clip-rule="evenodd" d="M75.5078 4L46.4168 26.032L51.3364 14.0533L75.5078 4Z" fill="#E88F35"/>
<path fill-rule="evenodd" clip-rule="evenodd" d="M75.5086 4L79.3589 15.7648L77.2198 28.599L78.7172 29.4547L76.5781 31.3798L78.2894 32.8771L75.9364 35.0162L77.4337 36.2996L74.0113 40.5777L57.9684 35.6579C50.1252 29.3834 46.2749 26.1748 46.4175 26.0322C46.5602 25.8896 56.2572 18.5455 75.5086 4Z" fill="#8E5A30"/>
</svg>
