<svg width="14" height="14" viewBox="0 0 14 14" fill="none" xmlns="http://www.w3.org/2000/svg">
<g clip-path="url(#clip0_350_1728)">
<path d="M1.20865 13.9946C1.11037 13.9891 1.03419 13.9496 0.969062 13.8845C0.684082 13.5991 0.396734 13.3157 0.114122 13.028C-0.0394204 12.8721 -0.0362627 12.7067 0.112937 12.5468C0.133068 12.5251 0.154777 12.505 0.175302 12.4841C2.41212 10.2473 4.64973 8.01123 6.88378 5.77164C6.97812 5.67731 7.02469 5.67494 7.11824 5.77125C7.49124 6.15649 7.87253 6.53343 8.25461 6.90959C8.32092 6.97472 8.32881 7.00906 8.25777 7.08011C5.9949 9.33903 3.734 11.6003 1.47311 13.862C1.39732 13.9378 1.31443 13.993 1.20865 13.9946Z" fill="white"/>
<path d="M11.7657 4.32416C11.7676 4.42481 11.7222 4.50296 11.6532 4.57164C10.9293 5.29514 10.2062 6.01943 9.48148 6.74175C9.31136 6.91148 9.14085 6.90832 8.96836 6.73623C8.39682 6.16666 7.82607 5.59631 7.2565 5.02477C7.0852 4.85307 7.08599 4.68413 7.25729 4.51204C7.97685 3.7913 8.6968 3.07095 9.41793 2.35179C9.58687 2.18325 9.75975 2.18444 9.93145 2.35574C10.503 2.92531 11.0729 3.49685 11.6441 4.06681C11.7167 4.13864 11.7688 4.21798 11.7657 4.32416Z" fill="white"/>
<path d="M4.45988 0.312296C4.46067 0.107836 4.6371 -0.0311016 4.85498 0.0060011C5.25838 0.0750753 5.64401 0.20454 6.02017 0.362818C6.99786 0.7745 7.86583 1.35946 8.67222 2.04191C8.75156 2.10901 8.7409 2.14296 8.67419 2.20848C8.28896 2.58819 7.90609 2.97027 7.52677 3.35629C7.46244 3.42182 7.43086 3.42063 7.36692 3.35629C6.44053 2.42557 5.51139 1.49761 4.58263 0.569646C4.51119 0.497809 4.45633 0.419262 4.45988 0.312296Z" fill="white"/>
<path d="M14 9.2102C13.9952 9.3444 13.9392 9.44387 13.8251 9.50268C13.7162 9.55873 13.606 9.55083 13.505 9.47939C13.4651 9.45137 13.4304 9.41584 13.3957 9.38111C12.4847 8.47051 11.5753 7.55834 10.6607 6.6509C10.577 6.56762 10.5834 6.52696 10.6631 6.44881C11.0464 6.07423 11.4233 5.69334 11.8014 5.31363C11.8456 5.26942 11.8741 5.22995 11.9364 5.30415C12.7535 6.27159 13.4387 7.31599 13.8373 8.52972C13.9112 8.75352 13.9696 8.98166 14 9.2102Z" fill="white"/>
</g>
<defs>
<clipPath id="clip0_350_1728">
<rect width="14" height="14" fill="white"/>
</clipPath>
</defs>
</svg>
