<svg width="28" height="28" viewBox="0 0 28 28" fill="none" xmlns="http://www.w3.org/2000/svg">
<path d="M14.0858 25.6602C12.1968 25.6602 10.3071 25.6624 8.41806 25.6595C7.33947 25.6573 6.34458 25.4075 5.50378 24.6972C4.64372 23.9701 4.23036 23.0194 4.20591 21.9391C4.15998 19.8847 4.37629 17.8631 5.38599 16.0091C6.19493 14.5237 7.44687 13.6764 9.18032 13.6298C9.52331 13.6203 9.89372 13.7726 10.2137 13.9271C11.0071 14.3095 11.7457 14.8246 12.5665 15.1262C14.0622 15.6762 15.503 15.352 16.8616 14.6009C17.0979 14.4705 17.3379 14.3365 17.5439 14.166C18.4358 13.4258 19.4099 13.5278 20.4026 13.8826C21.8219 14.3904 22.6331 15.4773 23.1657 16.7959C23.8621 18.518 24.0562 20.3262 23.9428 22.1584C23.8184 24.1785 22.199 25.6114 20.0122 25.6486C18.0372 25.6828 16.0608 25.6559 14.0851 25.6559C14.0851 25.6573 14.0851 25.6595 14.0851 25.661L14.0858 25.6602Z" fill="white"/>
<path d="M8.23928 7.93113C8.24743 4.80296 10.7943 2.31514 13.9686 2.33335C17.1221 2.35156 19.6579 4.85833 19.6534 7.95372C19.649 11.0863 17.0873 13.5814 13.89 13.5653C10.7372 13.5493 8.23039 11.0506 8.23928 7.93113Z" fill="white"/>
</svg>
