<svg width="20" height="20" viewBox="0 0 20 20" fill="none" xmlns="http://www.w3.org/2000/svg">
<path d="M1.87645 5.72614C1.87754 3.83641 3.00364 2.40082 4.8446 1.9579C5.08084 1.90104 5.33156 1.88113 5.57577 1.88076C8.72979 1.87569 11.8838 1.87135 15.0378 1.87968C16.8241 1.88439 18.3408 3.14759 18.6839 4.90151C18.7343 5.15792 18.7462 5.42519 18.7466 5.68775C18.7506 8.77152 18.7509 11.8549 18.7484 14.9387C18.7469 16.7998 17.5509 18.2926 15.7429 18.6794C15.4795 18.7359 15.202 18.746 14.931 18.7464C11.8559 18.7507 8.78088 18.7507 5.70584 18.7486C3.83046 18.7475 2.36776 17.5886 1.95145 15.7615C1.88986 15.4906 1.88007 15.2038 1.87899 14.9242C1.87283 13.3785 1.87536 7.24611 1.87645 5.72614ZM8.89501 10.3045C8.94574 10.3273 8.9624 10.3331 8.97726 10.3418C9.65589 10.7283 10.3342 11.1147 11.0124 11.5018C11.503 11.7818 11.6921 11.755 12.0592 11.3374C12.9172 10.3607 13.7722 9.38139 14.6291 8.40357C14.902 8.09247 14.9081 7.75965 14.6433 7.51882C14.3813 7.28052 14.0338 7.31565 13.7643 7.61733C13.419 8.00375 13.0802 8.39596 12.7385 8.78528C12.282 9.30534 11.8255 9.82503 11.3661 10.348C11.2773 10.2991 11.2088 10.2622 11.1414 10.2234C10.4559 9.83155 9.77183 9.43644 9.08451 9.04821C8.76602 8.86822 8.47037 8.91421 8.26312 9.18836C7.47978 10.2252 6.70042 11.2653 5.92614 12.3087C5.71816 12.589 5.77215 12.9265 6.03121 13.1286C6.29317 13.3329 6.62252 13.2959 6.8497 13.024C7.00151 12.8422 7.13774 12.6477 7.28014 12.4579C7.8171 11.7427 8.35334 11.0267 8.89501 10.3045Z" fill="#2152CB"/>
</svg>
