<svg width="20" height="20" viewBox="0 0 20 20" fill="none" xmlns="http://www.w3.org/2000/svg">
<path d="M9.33472 1.98365C9.71694 2.00537 9.96281 2.17231 10.2536 2.43702C12.9244 4.8665 15.5996 7.29199 18.2929 9.69685C18.7339 10.0905 18.818 10.5261 18.7041 11.0454C18.5892 11.5687 18.3527 12.034 17.9894 12.4367C16.26 14.3512 14.5356 16.2704 12.8077 18.1861C12.1575 18.9067 11.3187 18.9386 10.605 18.2708C8.06659 15.8924 5.52524 13.5169 2.98861 11.1363C1.89671 10.1249 1.84667 9.3445 1.88257 7.93041C1.89599 6.3197 1.93297 4.70934 1.93479 3.09862C1.93551 2.40842 2.47113 1.87537 3.19495 1.87501C4.29373 1.87429 8.05861 1.91593 9.25458 1.98365L9.33472 1.98365ZM6.20554 5.0711C6.20155 4.40697 5.67936 3.89819 5.00595 3.90217C4.3532 3.90579 3.83753 4.42145 3.83391 5.07363C3.83028 5.72002 4.37967 6.27479 5.0219 6.27334C5.6663 6.2719 6.20917 5.72038 6.20554 5.0711Z" fill="#2152CB"/>
</svg>
