<svg width="28" height="28" viewBox="0 0 28 28" fill="none" xmlns="http://www.w3.org/2000/svg">
<path d="M10.6903 23.6471C10.7305 23.6833 10.7813 23.7053 10.835 23.7096C10.8887 23.714 10.9423 23.7004 10.9877 23.6711C11.0331 23.6418 11.0678 23.5983 11.0865 23.5472C11.1052 23.4961 11.1069 23.4402 11.0913 23.388L7.91362 12.3635C7.8848 12.2632 7.82634 12.1742 7.7461 12.1085C7.66585 12.0428 7.56765 12.0035 7.4647 11.9959C6.95022 11.9577 6.437 11.9155 5.92377 11.8683L1.67423 11.4765C1.6293 11.4721 1.58404 11.4801 1.54324 11.4996C1.50244 11.5192 1.46764 11.5495 1.44254 11.5875C1.41745 11.6255 1.40299 11.6696 1.40071 11.7153C1.39843 11.7609 1.40841 11.8063 1.4296 11.8466C3.72839 16.1987 7.03849 20.3466 10.6903 23.6471ZM13.8075 25.9775C13.8327 26.0669 13.9084 26.1333 14.0004 26.1333C14.0449 26.1319 14.0878 26.116 14.1225 26.088C14.1573 26.0599 14.1822 26.0211 14.1934 25.9775L18.0823 12.4835C18.0938 12.4443 18.0959 12.4029 18.0884 12.3627C18.0808 12.3225 18.0639 12.2848 18.0389 12.2526C18.0139 12.2205 17.9817 12.1949 17.9449 12.178C17.9081 12.1611 17.8679 12.1534 17.8275 12.1555C15.2773 12.2662 12.7235 12.2662 10.1733 12.1555C10.1331 12.1534 10.093 12.1611 10.0564 12.178C10.0197 12.1948 9.98756 12.2203 9.96263 12.2523C9.93769 12.2843 9.92068 12.3218 9.91302 12.3618C9.90536 12.4018 9.90727 12.4431 9.91859 12.4822L13.8075 25.9775ZM16.9095 23.388C16.8389 23.6305 17.1239 23.8155 17.3105 23.6471C20.9624 20.3453 24.2725 16.1987 26.5713 11.8466C26.5924 11.8064 26.6023 11.7611 26.6001 11.7156C26.5979 11.6701 26.5835 11.6261 26.5586 11.5881C26.5336 11.5502 26.499 11.5198 26.4584 11.5002C26.4178 11.4805 26.3727 11.4723 26.3279 11.4765L22.0783 11.8683C21.5639 11.9155 21.0506 11.9577 20.5361 11.9959C20.4332 12.0035 20.335 12.0428 20.2548 12.1085C20.1745 12.1742 20.116 12.2632 20.0872 12.3635L16.9095 23.388ZM26.3594 9.55187C26.4034 9.54796 26.4456 9.53245 26.4818 9.50687C26.5179 9.48129 26.5469 9.44654 26.5656 9.4061C26.5844 9.36566 26.5923 9.32095 26.5887 9.27643C26.585 9.23191 26.5699 9.18914 26.5448 9.1524L22.4617 3.16028C22.2877 2.90509 22.055 2.6965 21.7838 2.55244C21.5125 2.40838 21.2107 2.33316 20.9044 2.33325H17.7645C17.7231 2.33325 17.6823 2.34357 17.6458 2.3633C17.6092 2.38304 17.578 2.41157 17.555 2.44639C17.5319 2.4812 17.5177 2.52123 17.5136 2.56294C17.5094 2.60464 17.5155 2.64673 17.5312 2.68551L20.3773 9.73438C20.4177 9.83409 20.4883 9.91828 20.5789 9.97491C20.6695 10.0315 20.7755 10.0577 20.8817 10.0496C21.2221 10.0228 21.5651 9.99346 21.9068 9.96028L26.3594 9.55187ZM15.4695 2.64722C15.4311 2.55406 15.3663 2.47452 15.2832 2.41864C15.2002 2.36276 15.1026 2.33304 15.0029 2.33325H12.9979C12.8982 2.33304 12.8007 2.36276 12.7176 2.41864C12.6346 2.47452 12.5698 2.55406 12.5314 2.64722L9.55795 9.86839C9.54256 9.90618 9.53635 9.94715 9.53986 9.98787C9.54337 10.0286 9.55649 10.0679 9.57811 10.1024C9.59974 10.1369 9.62924 10.1657 9.66413 10.1862C9.69902 10.2068 9.73829 10.2186 9.77863 10.2206C12.5906 10.3585 15.4102 10.3585 18.2235 10.2206C18.2637 10.2184 18.3028 10.2065 18.3376 10.1858C18.3723 10.1652 18.4016 10.1364 18.4231 10.1019C18.4446 10.0674 18.4576 10.0282 18.461 9.98757C18.4645 9.94695 18.4583 9.90608 18.4429 9.86839L15.4695 2.64722ZM10.4696 2.68551C10.4854 2.64673 10.4914 2.60464 10.4873 2.56294C10.4831 2.52123 10.4689 2.4812 10.4459 2.44639C10.4228 2.41157 10.3916 2.38304 10.3551 2.3633C10.3186 2.34357 10.2778 2.33325 10.2364 2.33325H7.0965C6.79015 2.33316 6.48836 2.40838 6.21709 2.55244C5.94582 2.6965 5.71318 2.90509 5.53917 3.16028L1.45608 9.1524C1.43097 9.18914 1.41583 9.23191 1.41217 9.27643C1.40851 9.32095 1.41646 9.36566 1.43522 9.4061C1.45399 9.44654 1.48291 9.48129 1.5191 9.50687C1.55529 9.53245 1.59747 9.54796 1.64145 9.55187L6.09401 9.96028C6.43574 9.99346 6.77746 10.0228 7.11919 10.0496C7.22541 10.0579 7.33149 10.0318 7.42213 9.97517C7.51278 9.91852 7.58332 9.8342 7.62359 9.73438L10.4696 2.68551Z" fill="white"/>
</svg>
