<svg width="16" height="16" viewBox="0 0 16 16" fill="none" xmlns="http://www.w3.org/2000/svg">
<path d="M11.2221 10.1287C11.3921 10.3013 11.563 10.4761 11.7353 10.6492C12.7279 11.6447 13.7187 12.6416 14.7146 13.6345C14.9653 13.8845 15.0729 14.168 14.9475 14.4996C14.7456 15.0345 14.0765 15.1704 13.644 14.7618C13.2754 14.4135 12.9251 14.0466 12.5669 13.6874C11.7804 12.8984 10.9944 12.1094 10.2088 11.32C10.1553 11.2661 10.1074 11.2063 10.0534 11.1451C8.48323 12.1597 6.79896 12.4559 4.99965 12.0062C3.55157 11.6443 2.40822 10.8331 1.55318 9.6518C-0.118412 7.34139 0.236566 4.05128 2.35704 2.14262C4.65407 0.0754261 7.99724 -0.0523014 10.4065 1.82602C12.5899 3.52814 13.6957 7.13712 11.2216 10.1283L11.2221 10.1287ZM6.5562 10.68C9.01006 10.694 11.0305 8.75092 11.0418 6.36577C11.0531 3.99194 9.06593 2.0552 6.60269 2.03844C4.11597 2.02168 2.09503 3.93805 2.07531 6.3318C2.05559 8.70699 4.07418 10.6655 6.5562 10.6795V10.68Z" fill="#0A1E42"/>
</svg>
