<svg width="20" height="20" viewBox="0 0 20 20" fill="none" xmlns="http://www.w3.org/2000/svg">
<path d="M1.25 3.04976C1.29888 3.03651 1.29523 2.98763 1.3103 2.95474C1.43319 2.68658 1.64516 2.52441 1.93342 2.51938C2.59948 2.50796 3.26736 2.47553 3.93159 2.53354C4.8151 2.61029 5.50309 3.19184 5.7612 4.04382C5.88135 4.44035 6.00149 4.8378 6.10839 5.23798C6.14814 5.38736 6.20707 5.43898 6.37153 5.43898C9.98917 5.43259 13.6064 5.43579 17.224 5.43213C17.6278 5.43168 17.9924 5.52624 18.2893 5.80765C18.7338 6.2293 18.8503 6.73775 18.6662 7.32021C18.2194 8.73319 17.7745 10.1466 17.3286 11.5601C17.2363 11.8524 17.1655 12.1535 17.0006 12.4171C16.6009 13.0557 16.0257 13.4312 15.2715 13.4399C13.5456 13.46 11.8192 13.4486 10.0933 13.4495C9.56934 13.4495 9.0449 13.4577 8.52091 13.4436C7.62644 13.4198 6.84617 12.8337 6.58578 11.9753C6.1655 10.5893 5.76211 9.1987 5.35234 7.80948C5.03073 6.71994 4.71095 5.6304 4.3898 4.54086C4.26874 4.13108 4.05859 3.97302 3.63283 3.97256C3.16549 3.9721 2.6977 3.95292 2.23173 3.97804C1.77398 4.00317 1.43273 3.86795 1.25 3.42573C1.25 3.30056 1.25 3.17539 1.25 3.04976Z" fill="white"/>
<path d="M14.1024 17.0991C14.0686 17.0416 14.0042 17.0516 13.9535 17.0356C13.2312 16.8081 12.8041 16.0991 12.9439 15.355C13.0823 14.619 13.7758 14.1188 14.5551 14.1937C15.2563 14.2608 15.8237 14.8958 15.8356 15.6268C15.8475 16.3376 15.3262 16.9525 14.6145 17.0694C14.6022 17.0713 14.5921 17.0886 14.5807 17.0987C14.4217 17.0991 14.2618 17.0991 14.1024 17.0991Z" fill="white"/>
<path d="M8.97542 17.0992C8.94572 17.037 8.88085 17.0471 8.83014 17.0306C8.1586 16.8123 7.71867 16.1238 7.8242 15.4532C7.94024 14.714 8.5227 14.1969 9.24951 14.186C9.96948 14.1754 10.5821 14.6821 10.7095 15.3929C10.8489 16.1709 10.3121 16.9379 9.53777 17.0654C9.51447 17.069 9.49346 17.0713 9.48752 17.0987C9.31712 17.0992 9.14627 17.0992 8.97542 17.0992Z" fill="white"/>
</svg>
