<svg width="28" height="28" viewBox="0 0 28 28" fill="none" xmlns="http://www.w3.org/2000/svg">
<path d="M19.6889 9.28858C18.9572 5.04939 14.9386 1.76792 10.1951 2.41491C5.722 3.02587 2.5422 7.00461 2.91664 11.499C3.1825 14.6934 4.80011 17.0111 7.63617 18.4853C7.83688 18.5896 7.98441 18.5843 8.17912 18.4597C8.99167 17.9396 9.80721 17.4247 10.6235 16.9113C10.6213 16.8828 10.6198 16.8543 10.619 16.8243C10.616 16.6741 10.6168 15.5903 10.6175 14.8961V14.881C10.616 14.7144 10.6183 14.5418 10.6183 14.3391C10.2932 14.3391 10.0102 14.3429 9.72708 14.3384C9.19986 14.3309 8.8681 14.0517 8.85687 13.6126C8.84489 13.1645 9.19537 12.8485 9.73232 12.841C10.3936 12.8328 11.0549 12.85 11.7161 12.832C12.2261 12.8185 12.5324 12.3179 12.2591 11.9231C12.1513 11.7654 11.9079 11.6536 11.7094 11.6183C11.3687 11.5575 11.0114 11.5996 10.6677 11.5515C9.65594 11.4104 8.97894 10.6644 8.86436 9.60007C8.77299 8.74442 9.33316 7.81673 10.2049 7.51425C10.5651 7.3889 10.6767 7.21702 10.6183 6.87477C10.6138 6.85075 10.6175 6.82523 10.6175 6.80046C10.6213 6.17749 10.8841 5.83824 11.3612 5.84049C11.8292 5.84349 12.1093 6.20301 12.1138 6.80722C12.1153 6.96859 12.1138 7.12996 12.1138 7.34087C12.4321 7.34087 12.7272 7.33711 13.0222 7.34237C13.509 7.35062 13.84 7.64485 13.8512 8.07267C13.8632 8.51325 13.5232 8.83524 13.0222 8.83975C12.3857 8.8465 11.7491 8.839 11.1133 8.84275C10.6542 8.845 10.3719 9.07542 10.3584 9.44695C10.3442 9.83274 10.6332 10.0872 11.1088 10.1022C11.3207 10.109 11.5327 10.0999 11.7446 10.1067C12.85 10.1412 13.6663 10.8565 13.8333 11.9336C13.9875 12.9236 13.3802 13.8895 12.3819 14.2431C12.301 14.2716 12.2194 14.2994 12.1138 14.3361C12.1138 14.5283 12.1183 14.7167 12.1146 14.9051V14.9156C12.1153 15.2323 12.1161 15.6271 12.1161 15.9769C13.145 15.3682 14.1733 15.4995 15.033 16.3537C15.4748 16.792 15.9077 17.2408 16.3383 17.6777C16.4065 17.6454 16.4424 17.6334 16.4724 17.6124C16.5435 17.5613 16.6132 17.508 16.6791 17.451C19.1849 15.2871 20.2558 12.5738 19.6889 9.28858Z" fill="white"/>
<path d="M17.3093 20.7353C18.6865 19.355 20.0262 18.0122 21.4207 16.6154C21.0477 16.2559 20.6591 15.8731 20.2621 15.4993C19.9027 15.1608 19.7289 14.7675 19.9274 14.2872C20.1251 13.8083 20.5228 13.6582 21.0163 13.6619C22.24 13.6709 23.4629 13.6634 24.6866 13.6657C25.4482 13.6672 25.8377 14.056 25.8392 14.8178C25.8414 16.057 25.8354 17.2962 25.8422 18.5346C25.8444 19.0172 25.6796 19.3985 25.2213 19.5906C24.7615 19.7835 24.3713 19.6342 24.0381 19.2852C23.6591 18.8881 23.2735 18.4963 22.8698 18.0805C22.744 18.1976 22.6444 18.2862 22.55 18.3807C21.1106 19.8226 19.6728 21.2659 18.2334 22.707C17.6013 23.3397 17.0981 23.3412 16.4735 22.7137C15.3906 21.6254 14.3092 20.5356 13.2173 19.436C11.9292 20.2346 10.6681 21.0167 9.40693 21.7988C7.4351 23.0222 5.46551 24.2479 3.49142 25.4676C2.80843 25.8894 2.06178 25.6139 1.89328 24.8926C1.79068 24.4528 1.9809 24.0535 2.44372 23.766C4.12873 22.7183 5.81524 21.6742 7.501 20.6279C9.21896 19.5621 10.9362 18.4956 12.6541 17.4298C13.284 17.0387 13.6876 17.086 14.2186 17.6197C15.2491 18.6562 16.2773 19.695 17.31 20.7368L17.3093 20.7353Z" fill="white"/>
</svg>
