<svg width="14" height="14" viewBox="0 0 14 14" fill="none" xmlns="http://www.w3.org/2000/svg">
<path d="M12.5615 4.23665C13.1308 3.8324 13.6097 3.32782 14 2.74682V2.74624C13.4791 2.97432 12.9249 3.12599 12.3463 3.19949C12.9412 2.84424 13.3957 2.28599 13.6092 1.6134C13.0544 1.94415 12.4419 2.17749 11.7892 2.30815C11.2624 1.74699 10.5117 1.3999 9.69267 1.3999C8.10367 1.3999 6.82442 2.68965 6.82442 4.27049C6.82442 4.49799 6.84367 4.71674 6.89092 4.92499C4.50508 4.80832 2.39342 3.66499 0.97475 1.92257C0.727417 2.35249 0.581583 2.84424 0.581583 3.37332C0.581583 4.36732 1.09317 5.24815 1.85675 5.75857C1.39533 5.74982 0.94325 5.61565 0.56 5.40507V5.43657C0.56 6.83132 1.55458 7.98982 2.8595 8.25699C2.62558 8.32115 2.37125 8.35149 2.107 8.35149C1.92325 8.35149 1.73775 8.34099 1.56392 8.30249C1.9355 9.43882 2.99133 10.2747 4.2455 10.3022C3.269 11.0657 2.02883 11.526 0.686583 11.526C0.4515 11.526 0.22575 11.5155 0 11.4869C1.27167 12.3065 2.77783 12.7749 4.403 12.7749C9.46808 12.7749 12.7692 8.54924 12.5615 4.23665Z" fill="white"/>
</svg>
