<svg width="80" height="80" viewBox="0 0 80 80" fill="none" xmlns="http://www.w3.org/2000/svg">
<path d="M16.3838 25.3764C29.4248 12.8745 50.5752 12.8745 63.6162 25.3764L65.1844 26.8709C65.8447 27.497 65.8447 28.5069 65.1844 29.133L59.8195 34.2832C59.4893 34.5861 58.9734 34.5861 58.6433 34.2832L56.4767 32.2029C47.3768 23.4779 32.6232 23.4779 23.5233 32.2029L21.2123 34.4245C20.8821 34.7275 20.3663 34.7275 20.0361 34.4245L14.6505 29.2946C13.9902 28.6685 13.9902 27.6586 14.6505 27.0325L16.3838 25.3764ZM74.7176 36.0201L79.5048 40.6048C80.1651 41.2309 80.1651 42.2407 79.5048 42.8668L57.9417 63.5281C57.2814 64.1542 56.229 64.1542 55.5894 63.5281L40.2992 48.8653C40.1341 48.7037 39.8659 48.7037 39.7008 48.8653L24.4106 63.5281C23.7503 64.1542 22.698 64.1542 22.0583 63.5281L0.495228 42.8668C-0.165076 42.2407 -0.165076 41.2309 0.495228 40.6048L5.28244 36.0201C5.94274 35.394 6.9951 35.394 7.63477 36.0201L22.9249 50.683C23.09 50.8445 23.3583 50.8445 23.5233 50.683L38.8135 36.0201C39.4738 35.394 40.5262 35.394 41.1659 36.0201L56.456 50.683C56.6211 50.8445 56.8894 50.8445 57.0544 50.683L72.3446 36.0201C73.0049 35.394 74.0573 35.394 74.7176 36.0201Z" fill="#3B99FC"/>
</svg>
