<svg width="14" height="14" viewBox="0 0 14 14" fill="none" xmlns="http://www.w3.org/2000/svg">
<path d="M0.0014931 8.04046C0.0014931 7.96739 0.0014931 7.89469 0.0014931 7.82162C0.0449691 7.77595 -0.00946723 7.73065 0.0014931 7.68498C0.0014931 7.13806 0.0014931 6.59151 0.0014931 6.04459C0.031086 6.03691 0.0277979 6.01244 0.0288939 5.99051C0.0500839 5.56306 0.0866184 5.1367 0.138863 4.71181C0.184896 4.33733 0.222161 3.9592 0.320073 3.59495C0.505668 2.90664 1.11397 2.42512 1.85598 2.32574C2.76496 2.20408 3.67868 2.16536 4.59351 2.13723C6.45165 2.08023 8.30943 2.08791 10.1668 2.16682C10.8807 2.19714 11.595 2.23149 12.3012 2.35388C12.9957 2.47444 13.6022 3.03817 13.718 3.68483C13.847 4.40675 13.9302 5.13488 13.9679 5.86739C14.0402 7.27178 13.9938 8.67105 13.7797 10.063C13.726 10.4119 13.6537 10.7491 13.44 11.0436C13.0746 11.547 12.5591 11.7476 11.9651 11.8126C11.0996 11.9076 10.2311 11.9486 9.36162 11.9749C7.52649 12.0304 5.691 12.0238 3.85661 11.9453C3.13797 11.9146 2.41934 11.8799 1.70838 11.7571C0.986462 11.6322 0.401545 11.0604 0.279886 10.3582C0.153842 9.63081 0.0763887 8.89793 0.02999 8.16139C0.0281632 8.12157 0.0548334 8.07006 0.0014931 8.04046ZM5.61099 9.18216C6.83416 8.47157 8.03798 7.77193 9.26005 7.06207C8.03761 6.34965 6.83124 5.64636 5.61099 4.9354C5.61099 6.35696 5.61099 7.75732 5.61099 9.18216Z" fill="white"/>
</svg>
